<?xml version="1.0" encoding="UTF-8" standalone="no"?>
<!-- Created with Inkscape (http://www.inkscape.org/) -->

<svg
   width="169.33333mm"
   height="127mm"
   viewBox="0 0 169.33333 127"
   version="1.1"
   id="svg1"
   xml:space="preserve"
   sodipodi:docname="none.svg"
   inkscape:version="1.4.3 (fcd0343856, 2026-01-01)"
   xmlns:inkscape="http://www.inkscape.org/namespaces/inkscape"
   xmlns:sodipodi="http://sodipodi.sourceforge.net/DTD/sodipodi-0.dtd"
   xmlns="http://www.w3.org/2000/svg"
   xmlns:svg="http://www.w3.org/2000/svg"><sodipodi:namedview
     id="namedview1"
     pagecolor="#ffffff"
     bordercolor="#000000"
     borderopacity="0.25"
     inkscape:showpageshadow="2"
     inkscape:pageopacity="0.0"
     inkscape:pagecheckerboard="0"
     inkscape:deskcolor="#d1d1d1"
     inkscape:document-units="mm"
     inkscape:zoom="0.97890098"
     inkscape:cx="364.6947"
     inkscape:cy="351.92528"
     inkscape:window-width="1854"
     inkscape:window-height="1011"
     inkscape:window-x="66"
     inkscape:window-y="32"
     inkscape:window-maximized="1"
     inkscape:current-layer="layer1" /><defs
     id="defs1" /><g
     id="layer1"><g
       id="g11"
       transform="translate(-1.3147421e-7,-19.630176)"><path
         style="fill:#000000;stroke-width:0.678349"
         d="m 69.463533,93.547499 -0.0505,-9.23566 -1.003597,-0.628178 c -2.0831,-1.303871 -3.848622,-3.882379 -4.456487,-6.50861 -0.243951,-1.053969 -0.274476,-2.946287 -0.231619,-14.358379 l 0.04936,-13.14442 0.487391,-0.924109 c 1.0442,-1.97984 3.513236,-3.152764 5.460848,-2.594196 l 0.561477,0.161029 0.07653,-2.269916 c 0.06309,-1.871225 0.144021,-2.399685 0.460767,-3.008739 0.583884,-1.122717 1.173781,-1.737625 2.226213,-2.320598 0.862342,-0.477677 1.112619,-0.529082 2.527562,-0.51914 l 1.570448,0.01104 v -0.476756 c 0,-0.262216 0.262489,-0.992708 0.58331,-1.623315 1.31153,-2.577967 4.28116,-3.412693 6.78839,-1.908134 1.33021,0.798246 2.01386,1.866136 2.40207,3.752105 0.0936,0.45491 0.13278,0.472319 0.65376,0.290705 1.2612,-0.439656 3.61083,0.26726 4.67755,1.407297 0.26262,0.280669 0.66646,0.873752 0.89741,1.317965 l 0.41991,0.807658 0.0897,10.536017 0.0897,10.536018 1.23818,-2.908129 c 1.38404,-3.250738 1.72139,-3.827237 2.69006,-4.597036 0.88695,-0.704858 1.75841,-0.986756 3.071484,-0.993558 2.34752,-0.01216 4.16284,1.47706 4.77065,3.913675 0.27631,1.10767 0.0818,2.006743 -0.9246,4.272886 -1.7316,3.899204 -4.48048,10.038364 -6.516584,14.55366 -0.74582,1.65395 -1.56045,3.308 -1.81029,3.675667 -0.70982,1.044593 -2.0698,2.3783 -3.1022,3.042267 l -0.94227,0.606 -0.236164,9.032308 c -2.768415,0.03288 -2.771448,0.02259 -2.771448,0.02259 0.0067,0.713436 0.02685,-10.835094 0.122842,-11.014444 0.0911,-0.170277 0.69397,-0.575055 1.33964,-0.899506 0.75163,-0.377696 1.51738,-0.960852 2.1286,-1.621044 0.98792,-1.067079 1.06665,-1.221476 4.2643,-8.363738 5.087334,-11.363038 5.383274,-12.042868 5.383274,-12.366652 0,-0.889381 -0.91421,-1.722507 -1.89015,-1.722507 -0.897644,0 -1.408854,0.822184 -3.459414,5.563872 -1.08858,2.517203 -2.11649,4.9215 -2.28423,5.342882 -0.44029,1.106061 -0.99529,1.476686 -2.21693,1.480463 -4.09793,0.01267 -6.99088,2.088314 -7.31284,5.246844 -0.13151,1.290142 -0.37018,1.846427 -0.89473,2.085427 -0.92073,0.419513 -1.8939,0.0997 -2.24013,-0.736182 -0.34444,-0.831562 0.0519,-2.982622 0.84925,-4.609126 1.20188,-2.451711 3.73406,-4.422114 6.31263,-4.912151 l 1.1114,-0.211213 V 54.553073 42.37571 l -0.52464,-0.524633 c -0.67506,-0.675065 -1.57192,-0.710924 -2.29216,-0.09165 l -0.50358,0.432988 -0.0897,8.556701 -0.0897,8.556702 -0.50358,0.432997 c -0.67896,0.583801 -1.60862,0.580608 -2.19677,-0.0075 l -0.44081,-0.440543 V 48.684358 c 0,-11.351229 -0.001,-11.365194 -0.88746,-11.839587 -0.87987,-0.470888 -2.18689,0.006 -2.5032,0.913407 -0.13687,0.392624 -0.19894,3.862148 -0.19894,11.12017 v 10.549496 l -0.4729,0.371986 c -0.60212,0.473627 -1.50039,0.475863 -2.09871,0.0052 l -0.466264,-0.366763 -0.05151,-8.53234 -0.05151,-8.532341 -0.58614,-0.523582 c -0.93622,-0.836298 -2.10327,-0.672798 -2.642637,0.370223 -0.232216,0.449056 -0.271077,1.950043 -0.271077,10.470039 0,9.790165 -0.0058,9.953236 -0.371987,10.418738 -0.28665,0.364418 -0.530323,0.472904 -1.062199,0.472904 -1.791853,0 -1.79645,-0.01861 -1.79645,-7.273822 v -6.035268 l -0.524633,-0.524633 c -0.725944,-0.725945 -1.636627,-0.724221 -2.365326,0.0045 l -0.529109,0.529111 0.04935,13.245959 0.04935,13.245959 0.573102,1.209828 c 0.705091,1.488456 1.973503,2.793382 3.429771,3.528505 0.597526,0.301629 1.213384,0.729699 1.368575,0.951263 0.248871,0.355314 0.282163,1.659782 0.282163,11.055758 z"
         id="path9" /><rect
         style="fill:#ff0000;stroke-width:0.18393"
         id="rect11"
         width="76.110092"
         height="1.7220354"
         x="70.233704"
         y="-15.669964"
         transform="matrix(0.71089672,0.70329642,-0.51891246,0.85482739,0,0)" /><rect
         style="fill:#ff0000;stroke-width:0.18393"
         id="rect11-4"
         width="76.110092"
         height="1.7220354"
         x="2.4782555"
         y="-108.49319"
         transform="matrix(0.71089672,-0.70329642,-0.51891246,-0.85482739,0,0)" /></g><text
       xml:space="preserve"
       style="font-size:9.52479px;font-family:sans-serif;-inkscape-font-specification:sans-serif;writing-mode:lr-tb;direction:ltr;fill:#000000;stroke-width:0.148825"
       x="38.4519"
       y="90.644318"
       id="text1"><tspan
         sodipodi:role="line"
         id="tspan1"
         style="stroke-width:0.148825"
         x="38.4519"
         y="90.644318">Hand not detected!</tspan></text><text
       xml:space="preserve"
       style="font-size:5.87412px;font-family:sans-serif;-inkscape-font-specification:sans-serif;writing-mode:lr-tb;direction:ltr;fill:#000000;stroke-width:0.0917828"
       x="43.907784"
       y="100.96528"
       id="text2"><tspan
         sodipodi:role="line"
         id="tspan2"
         style="stroke-width:0.0917828"
         x="43.907784"
         y="100.96528">Please show your palm first</tspan></text></g></svg>
