<?xml version="1.0" encoding="UTF-8" standalone="no"?>
<!-- Created with Inkscape (http://www.inkscape.org/) -->

<svg
   width="169.33333mm"
   height="127mm"
   viewBox="0 0 169.33333 127"
   version="1.1"
   id="svg1"
   sodipodi:docname="paper-paper.svg"
   inkscape:export-filename="1.svg"
   inkscape:export-xdpi="96"
   inkscape:export-ydpi="96"
   inkscape:version="1.4.3 (fcd0343856, 2026-01-01)"
   xml:space="preserve"
   xmlns:inkscape="http://www.inkscape.org/namespaces/inkscape"
   xmlns:sodipodi="http://sodipodi.sourceforge.net/DTD/sodipodi-0.dtd"
   xmlns="http://www.w3.org/2000/svg"
   xmlns:svg="http://www.w3.org/2000/svg"><sodipodi:namedview
     id="namedview1"
     pagecolor="#ffffff"
     bordercolor="#000000"
     borderopacity="0.25"
     inkscape:showpageshadow="2"
     inkscape:pageopacity="0.0"
     inkscape:pagecheckerboard="0"
     inkscape:deskcolor="#d1d1d1"
     inkscape:document-units="mm"
     inkscape:zoom="1.384375"
     inkscape:cx="298.69074"
     inkscape:cy="251.73814"
     inkscape:window-width="1854"
     inkscape:window-height="1011"
     inkscape:window-x="66"
     inkscape:window-y="32"
     inkscape:window-maximized="1"
     inkscape:current-layer="svg1" /><defs
     id="defs1" /><g
     id="g1"
     transform="translate(0,-8.3371342)"><path
       style="fill:#000000"
       d="m 37.3204,91.111547 c -0.17073,-0.319011 -0.273892,-3.400228 -0.273892,-8.180504 v -7.668732 l -0.934293,-0.577425 c -0.513861,-0.317583 -1.348071,-1.119333 -1.853799,-1.781666 -1.645232,-2.154695 -1.709871,-2.691742 -1.709413,-14.202403 3.7e-4,-9.313163 0.04622,-10.428063 0.46302,-11.257642 0.671352,-1.336243 1.983766,-2.121941 3.544446,-2.121941 h 1.283789 v -1.754708 c 0,-1.33626 0.136291,-1.975231 0.571519,-2.679446 0.719978,-1.164947 2.549463,-2.034508 3.790577,-1.801673 0.82267,0.154334 0.877269,0.115283 1.038198,-0.742545 0.381102,-2.031446 2.561122,-3.374731 4.590163,-2.828367 1.218813,0.328192 2.569563,1.68793 2.822989,2.841773 0.15287,0.69601 0.253076,0.747257 1.461146,0.747257 1.401425,0 2.322426,0.507657 3.303851,1.821087 0.516332,0.691003 0.552591,1.171359 0.677806,8.979486 l 0.132292,8.249428 0.908806,-2.116666 c 1.233559,-2.873039 1.680647,-3.456055 3.051874,-3.979731 1.94309,-0.742073 3.851585,-0.04635 4.775856,1.740995 0.808539,1.563542 0.556097,2.437803 -2.981881,10.326891 -1.855408,4.137244 -3.650585,7.967983 -3.989281,8.512754 -0.338697,0.544771 -1.142354,1.368626 -1.785906,1.83079 l -1.170093,0.840298 v 7.741457 c 0,6.684911 -0.05674,7.798203 -0.415774,8.157232 -0.586959,0.58696 -1.336116,0.51598 -1.818181,-0.172264 -0.350706,-0.500702 -0.411878,-1.774616 -0.411878,-8.577319 0,-4.394105 0.07421,-8.182685 0.164924,-8.419067 0.09071,-0.236381 0.613696,-0.658731 1.162196,-0.938555 1.313899,-0.670301 2.621787,-2.258034 3.420692,-4.152606 0.355724,-0.843585 1.820736,-4.148942 3.255583,-7.345237 1.807736,-4.026951 2.56252,-5.995892 2.458054,-6.412117 -0.172917,-0.688958 -1.32141,-1.091242 -1.969589,-0.68989 -0.232138,0.14374 -1.255506,2.176855 -2.274152,4.518032 -1.018646,2.341178 -1.950992,4.354465 -2.07188,4.47397 -0.120888,0.119506 -1.112229,0.356296 -2.202981,0.5262 -3.095574,0.482192 -4.853264,2.022894 -4.853264,4.254126 0,0.83207 -0.693453,1.654666 -1.394893,1.654666 -0.75263,0 -1.257926,-1.049249 -1.076026,-2.234376 0.409744,-2.669599 2.469314,-5.077384 5.034845,-5.886097 l 1.404824,-0.442831 v -9.556057 c 0,-7.079711 -0.08228,-9.638333 -0.3175,-9.873557 -0.503097,-0.503097 -1.744021,-0.385752 -2.054441,0.194273 -0.167344,0.312685 -0.273892,3.024295 -0.273892,6.970451 0,6.127025 -0.02723,6.48332 -0.530242,6.938541 -0.438125,0.396498 -0.644966,0.42759 -1.190625,0.178971 l -0.660383,-0.30089 v -8.413468 c 0,-7.186627 -0.06006,-8.499215 -0.411878,-9.001507 -0.49955,-0.713206 -1.46531,-0.762034 -2.060657,-0.104183 -0.388366,0.429139 -0.437882,1.447037 -0.437882,9.001506 v 8.517652 l -0.62799,0.286131 c -0.455853,0.2077 -0.782214,0.203594 -1.190625,-0.01498 -0.550518,-0.294628 -0.562635,-0.4421 -0.562635,-6.847516 0,-7.114138 -0.114634,-7.72248 -1.455208,-7.72248 -1.374241,0 -1.455208,0.500854 -1.455208,9.001789 0,8.223167 -0.03343,8.460712 -1.190625,8.460712 -1.104519,0 -1.190625,-0.396088 -1.190625,-5.476875 0,-4.489098 -0.03855,-4.88043 -0.529167,-5.371042 -0.62615,-0.626151 -1.038983,-0.662749 -1.735368,-0.153844 -0.489211,0.357507 -0.517191,0.823151 -0.589449,9.809581 -0.04412,5.487248 0.03429,10.03012 0.187428,10.858505 0.352254,1.905517 1.348303,3.337277 2.914828,4.189886 0.706027,0.384269 1.355714,0.886372 1.443749,1.115786 0.08803,0.229414 0.160062,4.012293 0.160062,8.406398 0,6.802703 -0.06117,8.076617 -0.411878,8.577319 -0.510305,0.728563 -1.588511,0.770515 -1.960063,0.07627 z m 71.43749,0 C 108.58716,90.792536 108.484,87.711319 108.484,82.931043 v -7.668732 l -0.9343,-0.577425 c -0.51386,-0.317583 -1.34807,-1.119333 -1.8538,-1.781666 -1.64523,-2.154695 -1.70987,-2.691742 -1.70941,-14.202403 3.7e-4,-9.313163 0.0462,-10.428063 0.46302,-11.257642 0.67135,-1.336243 1.98377,-2.121941 3.54445,-2.121941 h 1.28379 v -1.754708 c 0,-1.33626 0.13629,-1.975231 0.57151,-2.679446 0.71998,-1.164947 2.54947,-2.034508 3.79058,-1.801673 0.82267,0.154334 0.87727,0.115283 1.0382,-0.742545 0.3811,-2.031446 2.56112,-3.374731 4.59016,-2.828367 1.21882,0.328192 2.56957,1.68793 2.82299,2.841773 0.15287,0.69601 0.25308,0.747257 1.46115,0.747257 1.40142,0 2.32242,0.507657 3.30385,1.821087 0.51633,0.691003 0.55259,1.171359 0.6778,8.979486 l 0.1323,8.249428 0.9088,-2.116666 c 1.23356,-2.873039 1.68065,-3.456055 3.05188,-3.979731 1.94309,-0.742073 3.85158,-0.04635 4.77585,1.740995 0.80854,1.563542 0.5561,2.437803 -2.98188,10.326891 -1.85541,4.137244 -3.65058,7.967983 -3.98928,8.512754 -0.3387,0.544771 -1.14235,1.368626 -1.78591,1.83079 l -1.17009,0.840298 v 7.741457 c 0,6.684911 -0.0567,7.798203 -0.41577,8.157232 -0.58696,0.58696 -1.33612,0.51598 -1.81818,-0.172264 -0.35071,-0.500702 -0.41188,-1.774616 -0.41188,-8.577319 0,-4.394105 0.0742,-8.182685 0.16492,-8.419067 0.0907,-0.236381 0.6137,-0.658731 1.1622,-0.938555 1.3139,-0.670301 2.62179,-2.258034 3.42069,-4.152606 0.35572,-0.843585 1.82074,-4.148942 3.25558,-7.345237 1.80774,-4.026951 2.56252,-5.995892 2.45806,-6.412117 -0.17292,-0.688958 -1.32141,-1.091242 -1.96959,-0.68989 -0.23214,0.14374 -1.25551,2.176855 -2.27415,4.518032 -1.01865,2.341178 -1.951,4.354465 -2.07188,4.47397 -0.12089,0.119506 -1.11223,0.356296 -2.20298,0.5262 -3.09558,0.482192 -4.85327,2.022894 -4.85327,4.254126 0,0.83207 -0.69345,1.654666 -1.39489,1.654666 -0.75263,0 -1.25793,-1.049249 -1.07603,-2.234376 0.40975,-2.669599 2.46932,-5.077384 5.03485,-5.886097 l 1.40482,-0.442831 v -9.556057 c 0,-7.079711 -0.0823,-9.638333 -0.3175,-9.873557 -0.5031,-0.503097 -1.74402,-0.385752 -2.05444,0.194273 -0.16734,0.312685 -0.27389,3.024295 -0.27389,6.970451 0,6.127025 -0.0272,6.48332 -0.53024,6.938541 -0.43813,0.396498 -0.64497,0.42759 -1.19063,0.178971 l -0.66038,-0.30089 v -8.413468 c 0,-7.186627 -0.0601,-8.499215 -0.41188,-9.001507 -0.49955,-0.713206 -1.46531,-0.762034 -2.06066,-0.104183 -0.38836,0.429139 -0.43788,1.447037 -0.43788,9.001506 v 8.517652 l -0.62799,0.286131 c -0.45585,0.2077 -0.78221,0.203594 -1.19062,-0.01498 -0.55052,-0.294628 -0.56264,-0.4421 -0.56264,-6.847516 0,-7.114138 -0.11463,-7.72248 -1.45521,-7.72248 -1.37424,0 -1.4552,0.500854 -1.4552,9.001789 0,8.223167 -0.0334,8.460712 -1.19063,8.460712 -1.10452,0 -1.19062,-0.396088 -1.19062,-5.476875 0,-4.489098 -0.0386,-4.88043 -0.52917,-5.371042 -0.62615,-0.626151 -1.03899,-0.662749 -1.73537,-0.153844 -0.48921,0.357507 -0.51719,0.823151 -0.58945,9.809581 -0.0441,5.487248 0.0343,10.03012 0.18743,10.858505 0.35225,1.905517 1.3483,3.337277 2.91483,4.189886 0.70602,0.384269 1.35571,0.886372 1.44375,1.115786 0.088,0.229414 0.16006,4.012293 0.16006,8.406398 0,6.802703 -0.0612,8.076617 -0.41188,8.577319 -0.5103,0.728563 -1.58851,0.770515 -1.96006,0.07627 z"
       id="path1"
       sodipodi:nodetypes="sscssssscssssssssscsssssscssssssssssssssssscsssssscsssscssssssssssssssssssscssscscssssssssscsssssscscssssssssssssssscscsssscscsscssssssscsssscssss" /><text
       xml:space="preserve"
       style="font-size:11.2889px;font-family:sans-serif;-inkscape-font-specification:sans-serif;writing-mode:lr-tb;direction:ltr;fill:#000000;stroke-width:0.264583"
       x="76.668518"
       y="108.12231"
       id="text1"><tspan
         sodipodi:role="line"
         id="tspan1"
         style="stroke-width:0.264583"
         x="76.668518"
         y="108.12231">Tie</tspan></text></g></svg>
