<?xml version="1.0" encoding="UTF-8" standalone="no"?>
<!-- Created with Inkscape (http://www.inkscape.org/) -->

<svg
   width="169.33333mm"
   height="127mm"
   viewBox="0 0 169.33333 127"
   version="1.1"
   id="svg1"
   sodipodi:docname="paper-rock.svg"
   inkscape:export-filename="1.svg"
   inkscape:export-xdpi="96"
   inkscape:export-ydpi="96"
   inkscape:version="1.4.3 (fcd0343856, 2026-01-01)"
   xml:space="preserve"
   xmlns:inkscape="http://www.inkscape.org/namespaces/inkscape"
   xmlns:sodipodi="http://sodipodi.sourceforge.net/DTD/sodipodi-0.dtd"
   xmlns="http://www.w3.org/2000/svg"
   xmlns:svg="http://www.w3.org/2000/svg"><sodipodi:namedview
     id="namedview1"
     pagecolor="#ffffff"
     bordercolor="#000000"
     borderopacity="0.25"
     inkscape:showpageshadow="2"
     inkscape:pageopacity="0.0"
     inkscape:pagecheckerboard="0"
     inkscape:deskcolor="#d1d1d1"
     inkscape:document-units="mm"
     inkscape:zoom="0.97890098"
     inkscape:cx="192.56289"
     inkscape:cy="229.33882"
     inkscape:window-width="1854"
     inkscape:window-height="1011"
     inkscape:window-x="66"
     inkscape:window-y="32"
     inkscape:window-maximized="1"
     inkscape:current-layer="svg1" /><defs
     id="defs1" /><g
     id="g1"
     transform="translate(0,-9.4312992)"><path
       style="fill:#000000"
       d="m 40.357881,91.119715 c -0.17073,-0.31902 -0.273893,-3.40023 -0.273893,-8.18051 v -7.668731 l -0.934292,-0.577425 c -0.513861,-0.317584 -1.348071,-1.119334 -1.8538,-1.781667 -1.645231,-2.154694 -1.709871,-2.691741 -1.709413,-14.202403 3.7e-4,-9.313162 0.04623,-10.428062 0.463021,-11.257641 0.671351,-1.336243 1.983765,-2.121941 3.544445,-2.121941 h 1.283789 v -1.754708 c 0,-1.33626 0.136291,-1.975231 0.57152,-2.679446 0.729293,-1.18002 2.547976,-2.034787 3.821194,-1.79593 0.809931,0.151944 0.899051,0.108505 0.899942,-0.438657 0.0029,-1.783929 2.463539,-3.592326 4.394955,-3.22999 1.254483,0.235342 2.667787,1.500466 3.031183,2.713373 0.281843,0.940709 0.325591,0.967649 1.571366,0.967649 1.384693,0 2.310745,0.512858 3.288283,1.821087 0.516333,0.691002 0.552592,1.171359 0.677807,8.979485 l 0.132291,8.249429 0.908806,-2.116667 c 1.23356,-2.873039 1.680648,-3.456054 3.051874,-3.979731 1.94309,-0.742072 3.851585,-0.04635 4.775856,1.740995 0.80854,1.563543 0.556098,2.437803 -2.98188,10.326892 -1.855408,4.137244 -3.650585,7.967983 -3.989282,8.512754 -0.338696,0.54477 -1.142354,1.368626 -1.785905,1.83079 l -1.170094,0.840297 v 7.741456 c 0,6.68491 -0.05674,7.7982 -0.415773,8.15723 -0.58696,0.58696 -1.336117,0.51598 -1.818182,-0.17226 -0.350705,-0.5007 -0.411878,-1.77462 -0.411878,-8.57732 0,-4.394104 0.07422,-8.182684 0.164924,-8.419066 0.09071,-0.236382 0.613697,-0.658732 1.162197,-0.938555 1.313899,-0.670302 2.621787,-2.258034 3.420691,-4.152606 0.355724,-0.843585 1.820737,-4.148942 3.255584,-7.345238 1.807736,-4.02695 2.562519,-5.995891 2.458053,-6.412116 -0.172917,-0.688958 -1.32141,-1.091242 -1.969588,-0.68989 -0.232138,0.14374 -1.255507,2.179874 -2.274153,4.524742 -1.018646,2.344869 -1.971146,4.373465 -2.116666,4.507991 -0.145521,0.134527 -1.139622,0.370124 -2.209114,0.523548 -3.04014,0.436126 -4.802344,1.98319 -4.802344,4.216046 0,0.836262 -0.694324,1.654667 -1.403797,1.654667 -0.750176,0 -1.297427,-1.151599 -1.089762,-2.293225 0.486545,-2.674749 2.531559,-5.03102 5.057484,-5.827248 l 1.404824,-0.442832 v -9.556056 c 0,-7.079711 -0.08228,-9.638334 -0.3175,-9.873557 -0.503096,-0.503097 -1.744021,-0.385753 -2.05444,0.194272 -0.167345,0.312686 -0.273893,3.024296 -0.273893,6.970452 0,6.127025 -0.02723,6.48332 -0.530241,6.938541 -0.438126,0.396498 -0.644967,0.42759 -1.190625,0.178971 l -0.660384,-0.300891 v -8.413468 c 0,-7.186626 -0.06006,-8.499215 -0.411878,-9.001506 -0.499549,-0.713207 -1.46531,-0.762034 -2.060656,-0.104184 -0.388366,0.42914 -0.437882,1.447038 -0.437882,9.001507 v 8.517651 l -0.627991,0.286132 c -0.455852,0.2077 -0.782213,0.203594 -1.190625,-0.01498 -0.550517,-0.294629 -0.562634,-0.4421 -0.562634,-6.847517 0,-7.114137 -0.114635,-7.722479 -1.455208,-7.722479 -1.374242,0 -1.455209,0.500854 -1.455209,9.001788 0,8.223168 -0.03343,8.460713 -1.190625,8.460713 -1.104519,0 -1.190625,-0.396088 -1.190625,-5.476875 0,-4.489098 -0.03856,-4.880431 -0.529166,-5.371042 -0.626212,-0.626212 -1.039069,-0.662763 -1.735368,-0.153633 -0.49157,0.359432 -0.514805,0.798035 -0.541917,10.229608 -0.01558,5.419741 0.07549,10.316144 0.202385,10.880897 0.350389,1.559464 1.423918,2.969813 2.852339,3.747256 0.706027,0.384269 1.355714,0.886372 1.443748,1.115786 0.08803,0.229414 0.160063,4.012293 0.160063,8.406396 0,6.80271 -0.06117,8.07662 -0.411878,8.57732 -0.510306,0.72856 -1.588512,0.77052 -1.960063,0.0763 z m 71.758919,-0.29862 -0.59532,-0.23089 v -7.51775 -7.51775 l -0.93211,-0.710959 c -3.53923,-2.699507 -3.90645,-4.145415 -3.78328,-14.896813 0.0809,-7.059555 0.11322,-7.473931 0.63868,-8.182562 1.02788,-1.386172 2.21152,-1.997756 3.61369,-1.867184 0.90406,0.08419 1.25677,0.02225 1.25677,-0.220704 0,-0.571766 1.38336,-2.01809 2.29426,-2.398688 1.16781,-0.487942 1.90865,-0.45426 3.07376,0.139747 0.96334,0.491137 1.00063,0.491137 1.96397,0 1.22782,-0.625978 2.08674,-0.632675 3.27757,-0.02555 0.89289,0.455219 0.97547,0.455509 1.97418,0.0069 1.32556,-0.595379 1.83852,-0.589394 3.21965,0.03756 1.43096,0.649578 2.18598,1.858747 2.18729,3.502921 9.7e-4,1.219017 0.0251,1.255065 1.18456,1.767938 2.20206,0.974076 2.25369,1.192741 2.25633,9.555381 0.002,6.270889 -0.0618,7.455691 -0.46203,8.576471 -0.4971,1.39221 -2.21428,3.502465 -3.34054,4.105223 l -0.68769,0.36804 -0.0701,7.532059 c -0.0676,7.25543 -0.09,7.54526 -0.61157,7.89143 -0.46167,0.30642 -0.62734,0.2992 -1.12448,-0.049 -0.57967,-0.40602 -0.58304,-0.45577 -0.58304,-8.60777 v -8.199383 l 0.82709,-0.450715 c 1.51679,-0.826557 2.41782,-1.739769 3.04459,-3.085737 0.59951,-1.287434 0.62115,-1.564196 0.62365,-7.973451 0.002,-6.098349 -0.0369,-6.675425 -0.48127,-7.077605 -0.41347,-0.374186 -1.19476,-0.437882 -5.37104,-0.437882 -5.23201,0 -5.52219,0.06952 -5.52219,1.322917 0,1.201265 0.37734,1.322917 4.10339,1.322917 4.40483,0 4.42015,0.0096 4.48492,2.80129 0.0685,2.951331 -0.0656,3.309533 -1.40567,3.756233 -1.90916,0.636386 -3.47847,2.770866 -3.47847,4.731195 0,0.668675 -0.49634,1.146699 -1.19063,1.146699 -0.81264,0 -1.19062,-0.508242 -1.19062,-1.600935 0,-2.145262 1.39212,-4.50634 3.43904,-5.832696 1.05437,-0.683212 1.32346,-1.004091 1.32346,-1.578207 V 60.20315 l -2.98845,-0.09487 c -2.29754,-0.07293 -3.15392,-0.203286 -3.70417,-0.563822 -0.67767,-0.444028 -0.75254,-0.44483 -1.40839,-0.0151 -0.90796,0.594917 -2.99836,0.594917 -3.90632,0 -0.65436,-0.428752 -0.73099,-0.428752 -1.38534,0 -0.41542,0.272188 -1.20971,0.453856 -1.98438,0.453856 h -1.2917 l 0.001,4.380889 c 8.1e-4,2.40949 0.13358,4.856747 0.29505,5.43835 0.31894,1.148877 1.91022,2.874257 3.34671,3.62876 l 0.86225,0.452887 -0.0699,8.246215 c -0.0671,7.91728 -0.091,8.25968 -0.59909,8.58392 -0.34999,0.22336 -0.73075,0.25953 -1.12448,0.10683 z M 111.76576,57.12783 c 0.19094,-0.23007 0.27916,-1.103009 0.23083,-2.283985 -0.0642,-1.568932 -0.17353,-1.974653 -0.60987,-2.263429 -0.42819,-0.283379 -0.65988,-0.288122 -1.19063,-0.02438 -0.5901,0.29324 -0.66715,0.512913 -0.7371,2.101681 -0.043,0.975818 0.0505,2.014581 0.20774,2.308362 0.3366,0.62894 1.62866,0.728504 2.09903,0.161748 z m 5.30266,-0.139372 c 0.39347,-0.735202 0.35683,-6.707793 -0.0436,-7.108228 -0.17463,-0.174625 -0.62707,-0.3175 -1.00542,-0.3175 -0.37835,0 -0.83079,0.142875 -1.00542,0.3175 -0.4399,0.439905 -0.4399,6.862596 0,7.302501 0.5031,0.503097 1.74402,0.385752 2.05444,-0.194273 z m 5.06947,-4.779894 c 0.37719,0 0.49609,-0.194415 0.49609,-0.811144 0,-1.20999 -0.43559,-1.83469 -1.27931,-1.83469 -1.02473,0 -1.36652,0.451651 -1.36652,1.805782 0,1.170164 4.4e-4,1.170694 0.82682,1.005416 0.45476,-0.09095 1.05007,-0.165364 1.32292,-0.165364 z m 5.78776,-0.907143 c 0,-0.498929 -0.1871,-1.094241 -0.41577,-1.322917 -0.98819,-0.988189 -2.49465,-0.08528 -2.49465,1.495181 0,0.714373 0.0406,0.734879 1.45521,0.734879 h 1.45521 z"
       id="path1"
       sodipodi:nodetypes="sscssssscssssssssscsssssscssssssssssssssssscsssssscsssscsssssssssssssssssccccssssssssscsssscsccssscsscssssssssssscssssssccsscssccssssccsssssssssssssssssscs" /><text
       xml:space="preserve"
       style="font-size:11.2889px;font-family:sans-serif;-inkscape-font-specification:sans-serif;writing-mode:lr-tb;direction:ltr;fill:#000000;stroke-width:0.264583"
       x="53.906063"
       y="108.13048"
       id="text1"><tspan
         sodipodi:role="line"
         id="tspan1"
         style="stroke-width:0.264583"
         x="53.906063"
         y="108.13048">Paper wins</tspan></text></g></svg>
