<?xml version="1.0" encoding="UTF-8" standalone="no"?>
<!-- Created with Inkscape (http://www.inkscape.org/) -->

<svg
   width="169.33333mm"
   height="127mm"
   viewBox="0 0 169.33333 127"
   version="1.1"
   id="svg1"
   sodipodi:docname="paper-scissors.svg"
   inkscape:export-filename="1.svg"
   inkscape:export-xdpi="96"
   inkscape:export-ydpi="96"
   inkscape:version="1.4.3 (fcd0343856, 2026-01-01)"
   xml:space="preserve"
   xmlns:inkscape="http://www.inkscape.org/namespaces/inkscape"
   xmlns:sodipodi="http://sodipodi.sourceforge.net/DTD/sodipodi-0.dtd"
   xmlns="http://www.w3.org/2000/svg"
   xmlns:svg="http://www.w3.org/2000/svg"><sodipodi:namedview
     id="namedview1"
     pagecolor="#ffffff"
     bordercolor="#000000"
     borderopacity="0.25"
     inkscape:showpageshadow="2"
     inkscape:pageopacity="0.0"
     inkscape:pagecheckerboard="0"
     inkscape:deskcolor="#d1d1d1"
     inkscape:document-units="mm"
     inkscape:zoom="0.97890098"
     inkscape:cx="245.68368"
     inkscape:cy="207.88619"
     inkscape:window-width="1854"
     inkscape:window-height="1011"
     inkscape:window-x="66"
     inkscape:window-y="32"
     inkscape:window-maximized="1"
     inkscape:current-layer="svg1" /><defs
     id="defs1" /><g
     id="g1"
     transform="translate(0,-8.3371365)"><path
       style="fill:#000000"
       d="m 111.79811,91.736385 c -0.42427,-0.247118 -0.46302,-0.917436 -0.46302,-8.010814 v -7.741129 l -1.19491,-0.84225 c -1.2938,-0.911957 -2.62595,-2.786256 -3.04025,-4.277565 -0.14507,-0.522178 -0.26002,-4.674268 -0.26029,-9.401842 -4.6e-4,-7.932133 0.0321,-8.520145 0.51599,-9.313718 0.67945,-1.114338 1.97209,-1.761482 3.48226,-1.743348 1.13487,0.01363 1.25328,-0.04967 1.65023,-0.882084 0.49671,-1.041602 1.8375,-1.949067 2.88187,-1.950487 0.89558,-0.0012 0.89499,0.02864 0.0851,-4.320702 -0.65497,-3.517556 -0.62106,-4.316622 0.23892,-5.629119 0.92668,-1.414288 3.37094,-1.908378 4.92852,-0.996263 1.44598,0.846767 1.78055,1.588697 2.48971,5.521137 0.3674,2.037291 0.76023,3.926808 0.87297,4.198926 0.14587,0.352106 0.54422,-0.715056 1.38157,-3.701189 1.28804,-4.593303 1.89205,-5.634793 3.59354,-6.196336 1.974,-0.65148 4.32281,0.644881 4.87344,2.689768 0.25407,0.94355 0.11034,1.645435 -1.49556,7.303128 -1.69801,5.982234 -1.75435,6.271623 -1.27296,6.538729 0.27702,0.153711 0.95168,0.711951 1.49925,1.240534 l 0.99556,0.96106 -0.0116,7.505607 c -0.009,5.622178 -0.10165,7.758036 -0.37042,8.511556 -0.53289,1.49397 -1.68757,3.028417 -2.97421,3.952411 l -1.14167,0.819887 v 7.751047 c 0,7.392444 -0.0237,7.76372 -0.51177,8.02494 -0.69529,0.37211 -0.96615,0.345674 -1.4537,-0.141881 -0.36038,-0.360378 -0.41524,-1.514882 -0.41173,-8.665105 0.002,-4.537132 0.0915,-8.381546 0.19844,-8.543142 0.10691,-0.161596 0.56052,-0.48131 1.00802,-0.710476 1.17931,-0.603927 2.67912,-2.372027 3.00374,-3.541049 0.16282,-0.58633 0.28134,-3.754958 0.28219,-7.544349 0.001,-6.45233 -0.006,-6.538548 -0.58656,-6.945313 -0.47847,-0.335133 -1.46094,-0.411878 -5.27277,-0.411878 -5.07248,0 -5.51627,0.117387 -5.51627,1.459105 0,1.173755 0.85521,1.45092 4.49064,1.455364 1.82301,0.0022 3.49316,0.116934 3.71144,0.254902 0.28873,0.1825 0.42235,0.867561 0.49036,2.5142 0.10703,2.591021 -0.22524,3.40476 -1.49383,3.658478 -0.93247,0.186494 -2.31815,1.30402 -2.81981,2.274131 -0.20058,0.387877 -0.44995,1.177367 -0.55416,1.754422 -0.10421,0.577055 -0.30759,1.198019 -0.45196,1.37992 -0.3617,0.455744 -1.38571,0.415195 -1.78909,-0.07085 -0.44761,-0.539339 -0.18012,-2.698362 0.4993,-4.030149 0.56505,-1.107577 2.30609,-2.817771 3.35527,-3.295807 0.49853,-0.227146 0.64725,-0.497932 0.64725,-1.178481 v -0.883568 h -2.80428 c -2.03259,0 -3.05192,-0.11751 -3.70417,-0.427022 -0.82813,-0.392974 -0.97163,-0.392974 -1.79976,0 -0.49494,0.234862 -1.28062,0.427022 -1.74595,0.427022 -0.46534,0 -1.25102,-0.19216 -1.74596,-0.427022 -0.83357,-0.395558 -0.9701,-0.3937 -1.8529,0.02522 -0.56898,0.27 -1.36863,0.412605 -1.98438,0.353884 l -1.03135,-0.09835 0.006,4.6372 c 0.005,3.91389 0.081,4.80228 0.48781,5.695534 0.46112,1.012467 2.4147,3.042709 2.92783,3.042709 0.13471,0 0.43202,0.187098 0.66069,0.415773 0.3603,0.360298 0.41578,1.522786 0.41578,8.712352 0,7.189566 -0.0555,8.352055 -0.41578,8.712352 -0.47833,0.478329 -0.84929,0.510426 -1.50245,0.129997 z m -0.52189,-33.99277 c 0.51563,-0.361162 0.58804,-0.647859 0.58804,-2.328333 0,-2.043128 -0.24399,-2.551456 -1.22464,-2.551456 -1.06174,0 -1.42119,0.670182 -1.42119,2.64973 0,1.57892 0.0774,1.872382 0.58803,2.230059 0.32342,0.226533 0.65412,0.411878 0.73488,0.411878 0.0808,0 0.41146,-0.185345 0.73488,-0.411878 z m 5.29167,0 c 0.55378,-0.387883 0.58804,-0.602576 0.58804,-3.685268 0,-3.461364 -0.20741,-4.104938 -1.32292,-4.104938 -1.11551,0 -1.32292,0.643574 -1.32292,4.104938 0,3.082692 0.0343,3.297385 0.58804,3.685268 0.32342,0.226533 0.65412,0.411878 0.73488,0.411878 0.0808,0 0.41146,-0.185345 0.73488,-0.411878 z m 5.8797,-5.259266 c 0,-0.931465 -2.44842,-13.273286 -2.69126,-13.565885 -0.63705,-0.767594 -2.33582,-0.109665 -2.33582,0.904656 0,0.920447 1.63184,9.271751 1.99342,10.201789 0.21331,0.548648 0.38775,1.441617 0.38766,1.984375 l -1.6e-4,0.986834 1.32308,-0.09168 c 0.82784,-0.05736 1.32308,-0.214607 1.32308,-0.420087 z m 7.23848,-5.813793 c 0.96655,-3.406299 1.75735,-6.41858 1.75735,-6.693959 0,-0.275379 -0.14287,-0.643563 -0.3175,-0.818188 -0.41586,-0.415864 -1.66213,-0.407618 -1.99949,0.01323 -0.14581,0.181901 -1.0588,3.128698 -2.02885,6.548438 -0.97005,3.41974 -1.82585,6.426068 -1.90178,6.680729 -0.11956,0.401039 0.0541,0.463021 1.29744,0.463021 h 1.43548 z M 40.17149,90.716639 c -0.17073,-0.319012 -0.273893,-3.400228 -0.273893,-8.180505 v -7.668731 l -0.91597,-0.566101 c -1.274338,-0.787585 -2.467744,-2.37915 -3.071044,-4.095646 -0.471499,-1.341498 -0.510871,-2.255062 -0.510491,-11.845115 3.7e-4,-9.365175 0.0461,-10.482448 0.463021,-11.312274 0.671351,-1.336243 1.983765,-2.121941 3.544445,-2.121941 h 1.283789 v -1.754708 c 0,-1.33626 0.136291,-1.975231 0.57152,-2.679446 0.719977,-1.164948 2.549462,-2.034508 3.790577,-1.801674 0.822669,0.154334 0.877268,0.115284 1.038198,-0.742545 0.381101,-2.031445 2.561122,-3.37473 4.590162,-2.828366 1.218813,0.328192 2.569563,1.687929 2.82299,2.841773 0.152869,0.69601 0.253075,0.747257 1.461145,0.747257 1.401426,0 2.322427,0.507657 3.303851,1.821087 0.516333,0.691002 0.552592,1.171359 0.677806,8.979485 l 0.132292,8.249429 0.912048,-2.116667 c 1.245547,-2.890654 1.470137,-3.1965 2.831077,-3.855318 1.89428,-0.917004 3.77646,-0.367023 4.86748,1.422298 0.99161,1.626288 0.77464,2.425576 -2.85595,10.521176 -1.85541,4.137244 -3.65058,7.967983 -3.989281,8.512754 -0.338696,0.54477 -1.142354,1.368626 -1.785905,1.83079 l -1.170094,0.840297 v 7.741458 c 0,6.684911 -0.05674,7.798202 -0.415774,8.157232 -0.586959,0.586959 -1.336116,0.51598 -1.818181,-0.172265 -0.350419,-0.500292 -0.411339,-1.753797 -0.408265,-8.400521 0.002,-4.296866 0.07681,-8.085756 0.166278,-8.419757 0.09236,-0.34481 0.597506,-0.829113 1.168777,-1.120553 0.553361,-0.282304 1.378652,-0.961531 1.833981,-1.509393 1.156249,-1.391229 7.480134,-15.62898 7.286074,-16.404064 -0.17047,-0.680919 -1.32506,-1.079072 -1.96686,-0.678268 -0.23214,0.144969 -1.26138,2.18251 -2.28719,4.527868 -1.025821,2.345359 -1.958167,4.35764 -2.071883,4.471736 -0.113717,0.114096 -1.099191,0.34646 -2.189943,0.516364 -3.095574,0.482192 -4.853264,2.022893 -4.853264,4.254125 0,0.832071 -0.693453,1.654667 -1.394893,1.654667 -0.752199,0 -1.257845,-1.04929 -1.076732,-2.234376 0.427856,-2.799613 2.515722,-5.140197 5.340012,-5.986375 l 1.100363,-0.329677 v -9.562495 c 0,-7.084718 -0.08227,-9.644764 -0.3175,-9.879995 -0.503097,-0.503097 -1.744021,-0.385753 -2.054441,0.194272 -0.167344,0.312686 -0.273892,3.024296 -0.273892,6.970452 0,6.127025 -0.02723,6.48332 -0.530242,6.938541 -0.438125,0.396498 -0.644966,0.42759 -1.190624,0.178971 L 51.27468,55.521004 v -8.413468 c 0,-7.186626 -0.06006,-8.499215 -0.411878,-9.001506 -0.499549,-0.713207 -1.46531,-0.762034 -2.060656,-0.104184 -0.388366,0.42914 -0.437883,1.447038 -0.437883,9.001506 v 8.517652 l -0.62799,0.286132 c -0.455852,0.2077 -0.782213,0.203594 -1.190625,-0.01498 -0.550517,-0.294628 -0.562634,-0.442099 -0.562634,-6.847516 0,-7.114137 -0.114635,-7.722479 -1.455209,-7.722479 -1.374241,0 -1.455208,0.500854 -1.455208,9.001788 0,8.223168 -0.03343,8.460713 -1.190625,8.460713 -1.104519,0 -1.190625,-0.396088 -1.190625,-5.476876 0,-4.489097 -0.03855,-4.88043 -0.529167,-5.371041 -0.62615,-0.626151 -1.038983,-0.66275 -1.735367,-0.153844 -0.489212,0.357507 -0.517192,0.823151 -0.589449,9.809581 -0.0462,5.746015 0.0317,10.016114 0.199277,10.922605 0.353787,1.913812 1.292824,3.24943 2.899332,4.123801 0.760289,0.413802 1.345868,0.939316 1.440608,1.292841 0.08779,0.327603 0.16125,4.111259 0.163237,8.408125 0.0031,6.646724 -0.05785,7.900229 -0.408266,8.400521 -0.510305,0.728563 -1.588511,0.770516 -1.960062,0.07627 z"
       id="path1"
       sodipodi:nodetypes="cscssscssscssssssssssccsscssscsssccsscsssssssssscsssssssccsssssccssssssssssssssssssscsssssssssscssscssssscssssssssscsssssscsssssssssssssssscsssssscsssscssssssssssssscsss" /><text
       xml:space="preserve"
       style="font-size:11.2889px;font-family:sans-serif;-inkscape-font-specification:sans-serif;writing-mode:lr-tb;direction:ltr;fill:#000000;stroke-width:0.264583"
       x="47.222576"
       y="108.51722"
       id="text1"><tspan
         sodipodi:role="line"
         id="tspan1"
         style="stroke-width:0.264583"
         x="47.222576"
         y="108.51722">Scissors wins</tspan></text></g></svg>
