<?xml version="1.0" encoding="UTF-8" standalone="no"?>
<!-- Created with Inkscape (http://www.inkscape.org/) -->

<svg
   width="169.33333mm"
   height="127mm"
   viewBox="0 0 169.33333 127"
   version="1.1"
   id="svg1"
   sodipodi:docname="rock-scissors.svg"
   inkscape:export-filename="1.svg"
   inkscape:export-xdpi="96"
   inkscape:export-ydpi="96"
   inkscape:version="1.4.3 (fcd0343856, 2026-01-01)"
   xml:space="preserve"
   xmlns:inkscape="http://www.inkscape.org/namespaces/inkscape"
   xmlns:sodipodi="http://sodipodi.sourceforge.net/DTD/sodipodi-0.dtd"
   xmlns="http://www.w3.org/2000/svg"
   xmlns:svg="http://www.w3.org/2000/svg"><sodipodi:namedview
     id="namedview1"
     pagecolor="#ffffff"
     bordercolor="#000000"
     borderopacity="0.25"
     inkscape:showpageshadow="2"
     inkscape:pageopacity="0.0"
     inkscape:pagecheckerboard="0"
     inkscape:deskcolor="#d1d1d1"
     inkscape:document-units="mm"
     inkscape:zoom="0.97890098"
     inkscape:cx="245.68368"
     inkscape:cy="207.88619"
     inkscape:window-width="1854"
     inkscape:window-height="1011"
     inkscape:window-x="66"
     inkscape:window-y="32"
     inkscape:window-maximized="1"
     inkscape:current-layer="svg1" /><defs
     id="defs1" /><g
     id="g1"
     transform="translate(0,-8.3371341)"><path
       style="fill:#000000"
       d="m 111.78646,91.194204 c -0.42431,-0.24714 -0.46302,-0.91819 -0.46302,-8.026586 v -7.756902 l -1.03693,-0.686205 c -1.24223,-0.82207 -2.17471,-1.996023 -2.99003,-3.764306 -0.58812,-1.275535 -0.60325,-1.520705 -0.60325,-9.775017 0,-8.017007 0.0284,-8.515849 0.53522,-9.392709 0.70572,-1.221034 2.5662,-2.187325 3.83041,-1.989422 0.84304,0.131974 0.96355,0.06756 1.34463,-0.718744 0.51768,-1.068174 1.92315,-2.054334 2.92783,-2.054334 0.45356,0 0.75462,-0.141153 0.75462,-0.35381 0,-0.194595 -0.30321,-1.995232 -0.67379,-4.001416 l -0.67378,-3.647606 0.60764,-1.219667 c 1.37818,-2.766314 4.76031,-3.048167 6.60863,-0.550737 0.28933,0.390943 0.74284,2.104516 1.15108,4.349277 0.3705,2.037292 0.76274,3.925203 0.87165,4.195357 0.13806,0.342487 0.55101,-0.771234 1.36404,-3.678786 1.24774,-4.462153 1.79363,-5.455359 3.35753,-6.108797 1.2173,-0.50862 2.10519,-0.4501 3.29209,0.216975 0.97045,0.545419 2.08657,2.213373 2.08657,3.118195 0,0.194699 -0.78049,3.134384 -1.73442,6.532633 -0.95394,3.398249 -1.66129,6.296984 -1.57189,6.441634 0.0894,0.144649 0.32026,0.262998 0.51302,0.262998 0.19276,0 0.78752,0.483767 1.3217,1.075037 l 0.97123,1.075037 -0.0806,7.854651 -0.0806,7.854651 -0.79375,1.43941 c -0.48438,0.878403 -1.33474,1.85805 -2.1818,2.513542 l -1.38805,1.074132 -10e-4,7.744735 -0.001,7.74473 -0.62799,0.28614 c -0.45654,0.20801 -0.78258,0.20339 -1.19423,-0.0169 -0.56312,-0.30138 -0.56585,-0.35066 -0.49649,-8.954921 l 0.0697,-8.651878 0.94188,-0.443406 c 1.26764,-0.59676 2.79601,-2.337669 3.14008,-3.576744 0.16286,-0.586502 0.28133,-3.757583 0.28219,-7.553253 l 0.001,-6.542338 -0.64086,-0.419905 c -0.53871,-0.35298 -1.40482,-0.406665 -5.43407,-0.336829 -5.11515,0.08866 -5.28888,0.136438 -5.29811,1.457136 -0.008,1.138826 0.87534,1.404066 4.67572,1.404066 4.14456,0 4.05148,-0.07119 4.05148,3.098735 0,2.352629 -0.34307,3.094985 -1.54106,3.334583 -0.92506,0.185012 -2.3114,1.305596 -2.81138,2.272445 -0.20058,0.387877 -0.44995,1.177367 -0.55416,1.754422 -0.234,1.295743 -0.54702,1.710649 -1.29059,1.710649 -2.12636,0 -1.34535,-4.159936 1.22379,-6.518383 0.65571,-0.601934 1.44766,-1.175504 1.75989,-1.274601 0.43527,-0.138151 0.56768,-0.392008 0.56768,-1.088388 v -0.908212 h -2.80428 c -2.03259,0 -3.05192,-0.11751 -3.70417,-0.427022 -0.82813,-0.392974 -0.97163,-0.392974 -1.79976,0 -0.49494,0.234862 -1.28062,0.427022 -1.74596,0.427022 -0.46533,0 -1.25101,-0.19216 -1.74595,-0.427022 -0.83357,-0.395558 -0.9701,-0.3937 -1.8529,0.02522 -0.56898,0.269999 -1.36863,0.412605 -1.98438,0.353884 l -1.03135,-0.09836 0.006,4.6372 c 0.005,3.91389 0.081,4.802279 0.48781,5.695534 0.46112,1.012466 2.4147,3.042708 2.92783,3.042708 0.1347,0 0.43202,0.187099 0.66069,0.415774 0.3603,0.360297 0.41578,1.522786 0.41578,8.712352 0,7.189562 -0.0555,8.352052 -0.41578,8.712352 -0.47833,0.47833 -0.84929,0.51043 -1.50245,0.13 z m -0.52189,-33.992769 c 0.51563,-0.361162 0.58804,-0.647859 0.58804,-2.328333 0,-2.043128 -0.24399,-2.551456 -1.22465,-2.551456 -1.06173,0 -1.42119,0.670182 -1.42119,2.649729 0,1.578921 0.0774,1.872383 0.58804,2.23006 0.32342,0.226533 0.65412,0.411878 0.73488,0.411878 0.0808,0 0.41146,-0.185345 0.73488,-0.411878 z m 5.29166,0 c 0.55378,-0.387883 0.58804,-0.602576 0.58804,-3.685268 0,-3.461364 -0.20741,-4.104938 -1.32292,-4.104938 -1.1155,0 -1.32291,0.643574 -1.32291,4.104938 0,3.082692 0.0343,3.297385 0.58804,3.685268 0.32342,0.226533 0.65411,0.411878 0.73487,0.411878 0.0808,0 0.41146,-0.185345 0.73488,-0.411878 z m 5.87971,-5.143662 c 0,-0.145129 -0.54184,-3.210989 -1.20409,-6.813021 -1.22659,-6.671501 -1.41588,-7.210607 -2.53175,-7.210607 -0.58538,0 -1.29125,0.698109 -1.29125,1.277055 0,0.773227 1.77528,9.668695 2.08512,10.447983 0.16287,0.409655 0.29613,1.153796 0.29613,1.653646 v 0.908817 h 1.32292 c 0.7276,0 1.32292,-0.118743 1.32292,-0.263873 z m 7.24194,-5.961059 c 0.96464,-3.423713 1.75389,-6.435994 1.75389,-6.693959 0,-0.257964 -0.14288,-0.611901 -0.3175,-0.786526 -0.41592,-0.415917 -1.66343,-0.407643 -1.99466,0.01323 -0.14316,0.181901 -1.05537,3.128698 -2.02712,6.548438 -0.97176,3.419739 -1.82973,6.426068 -1.90661,6.680729 -0.12115,0.401348 0.0519,0.463021 1.29917,0.463021 h 1.43893 z m -89.196627,43.77912 -0.595312,-0.23088 v -7.532715 -7.532712 l -1.180869,-0.848035 c -1.268753,-0.91115 -2.215266,-2.125307 -2.974076,-3.815053 -0.426006,-0.948646 -0.475264,-1.954357 -0.475264,-9.703699 0,-8.357476 0.01843,-8.670253 0.553495,-9.392709 1.026923,-1.38658 2.211046,-1.998711 3.613693,-1.868095 0.904055,0.08419 1.256771,0.02225 1.256771,-0.220704 0,-0.571766 1.383352,-2.01809 2.294252,-2.398688 1.156158,-0.483074 1.907817,-0.454686 3.023642,0.114194 0.892885,0.455219 0.975466,0.455509 1.974173,0.0069 1.334406,-0.59935 2.154688,-0.59977 3.32776,-0.0017 0.913041,0.465495 0.969917,0.465001 1.841882,-0.01599 1.678705,-0.926009 4.22533,-0.103063 5.137074,1.660055 0.216085,0.417863 0.392883,1.295874 0.392883,1.951134 0,1.156544 0.03461,1.206694 1.183567,1.714932 2.203095,0.974533 2.25389,1.190201 2.255027,9.574394 0.0012,8.908988 -0.0364,9.07281 -2.682696,11.686386 l -1.805852,1.783523 -0.07034,7.312476 c -0.06766,7.034006 -0.09095,7.326156 -0.611773,7.671836 -0.461662,0.3064 -0.627343,0.29918 -1.124479,-0.049 -0.579588,-0.40596 -0.583042,-0.45676 -0.583042,-8.575652 v -8.167289 l 1.518609,-1.011999 c 0.990666,-0.660178 1.749519,-1.425919 2.182813,-2.202624 0.654246,-1.172775 0.665442,-1.293171 0.746812,-8.030768 0.07445,-6.164874 0.03775,-6.889705 -0.371737,-7.342188 -0.415215,-0.458808 -0.879196,-0.502045 -5.387504,-0.502045 -5.280897,0 -5.568159,0.06825 -5.568159,1.322917 0,1.201264 0.377337,1.322917 4.103388,1.322917 4.415747,0 4.457817,0.02591 4.580703,2.820726 0.118518,2.695457 -0.165358,3.423613 -1.471869,3.77542 -1.695072,0.456435 -3.508056,2.827143 -3.508056,4.587231 0,0.766078 -0.462124,1.25204 -1.190624,1.25204 -0.813843,0 -1.190625,-0.508596 -1.190625,-1.607152 0,-2.254533 1.367636,-4.563666 3.48104,-5.87743 1.046218,-0.650365 1.281459,-0.935051 1.281459,-1.550801 v -0.754201 h -2.72218 c -2.176293,0 -2.925062,-0.103434 -3.733884,-0.515795 -0.947901,-0.483268 -1.053509,-0.488402 -1.674657,-0.08141 -0.878504,0.575618 -2.984529,0.56504 -3.876607,-0.01947 -0.654358,-0.428753 -0.730984,-0.428753 -1.385343,0 -0.415411,0.272188 -1.20971,0.453856 -1.984375,0.453856 H 37.76927 l 0.0015,4.380889 c 8.11e-4,2.40949 0.126925,4.832642 0.280252,5.384785 0.30839,1.110533 2.008338,2.973516 3.360076,3.682325 l 0.86368,0.452886 -0.06993,8.24621 c -0.06714,7.917282 -0.09104,8.259682 -0.599096,8.583922 -0.349985,0.22336 -0.730745,0.25954 -1.124479,0.10683 z M 40.097607,56.23748 c 0.18732,-0.18732 0.3175,-1.087732 0.3175,-2.196042 0,-2.050664 -0.24362,-2.513542 -1.322916,-2.513542 -1.066937,0 -1.322917,0.467347 -1.322917,2.415268 0,1.265648 0.120187,1.900455 0.415774,2.196042 0.49346,0.49346 1.467332,0.543501 1.912559,0.09827 z m 5.335274,-0.194273 c 0.393468,-0.735202 0.356828,-6.707793 -0.04361,-7.108228 -0.174625,-0.174625 -0.627063,-0.3175 -1.005417,-0.3175 -1.194503,0 -1.322917,0.385239 -1.322917,3.96875 0,2.240139 0.104154,3.437904 0.3175,3.651251 0.503097,0.503097 1.744021,0.385752 2.054441,-0.194273 z m 4.837955,-4.776282 c 0.651569,-0.0032 0.727604,-0.09841 0.727604,-0.910755 0,-1.042557 -0.569014,-1.738691 -1.42119,-1.738691 -0.881891,0 -1.224643,0.504782 -1.224643,1.803567 0,1.082729 0.04373,1.156848 0.595312,1.00903 0.327422,-0.08775 0.922735,-0.161164 1.322917,-0.163151 z m 6.019271,-0.910755 c 0,-1.050974 -0.57025,-1.738691 -1.441711,-1.738691 -0.779896,0 -1.190194,0.502908 -1.383836,1.696183 l -0.154107,0.949651 h 1.489827 1.489827 z"
       id="path1"
       sodipodi:nodetypes="cscssscssssscsssssssssssscccsscccssccssccsscssssssssscsssssssccsssssccsssssssssssssssssssscssssssssscsccccsssssssscssssssscsscscsssssssssssssscssssssccsscssccsssssssssssssscsssscssscccs" /><text
       xml:space="preserve"
       style="font-size:11.2889px;font-family:sans-serif;-inkscape-font-specification:sans-serif;writing-mode:lr-tb;direction:ltr;fill:#000000;stroke-width:0.264583"
       x="56.397564"
       y="107.96854"
       id="text1"><tspan
         sodipodi:role="line"
         id="tspan1"
         style="stroke-width:0.264583"
         x="56.397564"
         y="107.96854">Rock wins</tspan></text></g></svg>
