<?xml version="1.0" encoding="UTF-8" standalone="no"?>
<!-- Created with Inkscape (http://www.inkscape.org/) -->

<svg
   width="169.33333mm"
   height="127mm"
   viewBox="0 0 169.33333 127"
   version="1.1"
   id="svg1"
   sodipodi:docname="rock-rock.svg"
   inkscape:export-filename="1.svg"
   inkscape:export-xdpi="96"
   inkscape:export-ydpi="96"
   inkscape:version="1.4.3 (fcd0343856, 2026-01-01)"
   xml:space="preserve"
   xmlns:inkscape="http://www.inkscape.org/namespaces/inkscape"
   xmlns:sodipodi="http://sodipodi.sourceforge.net/DTD/sodipodi-0.dtd"
   xmlns="http://www.w3.org/2000/svg"
   xmlns:svg="http://www.w3.org/2000/svg"><sodipodi:namedview
     id="namedview1"
     pagecolor="#ffffff"
     bordercolor="#000000"
     borderopacity="0.25"
     inkscape:showpageshadow="2"
     inkscape:pageopacity="0.0"
     inkscape:pagecheckerboard="0"
     inkscape:deskcolor="#d1d1d1"
     inkscape:document-units="mm"
     inkscape:zoom="0.97890098"
     inkscape:cx="245.68368"
     inkscape:cy="207.88619"
     inkscape:window-width="1854"
     inkscape:window-height="1011"
     inkscape:window-x="66"
     inkscape:window-y="32"
     inkscape:window-maximized="1"
     inkscape:current-layer="svg1" /><defs
     id="defs1" /><g
     id="g1"
     transform="translate(0,-8.3371383)"><path
       style="fill:#000000"
       d="m 41.40778,85.373114 -0.595312,-0.230889 v -7.532711 -7.532712 l -1.180869,-0.848035 c -1.268753,-0.91115 -2.215266,-2.125307 -2.974076,-3.815053 -0.426006,-0.948646 -0.475264,-1.954357 -0.475264,-9.703699 0,-8.357476 0.01843,-8.670253 0.553495,-9.392709 1.026923,-1.38658 2.211046,-1.998711 3.613693,-1.868095 0.904055,0.08419 1.256771,0.02225 1.256771,-0.220704 0,-0.571766 1.383352,-2.01809 2.294252,-2.398688 1.156158,-0.483074 1.907817,-0.454686 3.023642,0.114194 0.892885,0.455219 0.975466,0.455509 1.974173,0.0069 1.334406,-0.59935 2.154688,-0.59977 3.32776,-0.0017 0.913041,0.465495 0.969917,0.465001 1.841882,-0.01599 1.678705,-0.926009 4.22533,-0.103063 5.137074,1.660055 0.216085,0.417863 0.392883,1.295874 0.392883,1.951134 0,1.156544 0.03461,1.206694 1.183567,1.714932 2.203095,0.974533 2.25389,1.190201 2.255027,9.574394 0.0012,8.908988 -0.0364,9.07281 -2.682696,11.686386 l -1.805852,1.783523 -0.07034,7.312476 c -0.06766,7.034007 -0.09095,7.326161 -0.611773,7.671832 -0.461662,0.306408 -0.627343,0.299185 -1.124479,-0.04902 -0.579588,-0.405959 -0.583042,-0.456754 -0.583042,-8.575648 v -8.167269 l 1.518609,-1.011999 c 0.990666,-0.660178 1.749519,-1.425919 2.182813,-2.202624 0.654246,-1.172775 0.665442,-1.293171 0.746812,-8.030768 0.07445,-6.164874 0.03775,-6.889705 -0.371737,-7.342188 -0.415215,-0.458808 -0.879196,-0.502045 -5.387504,-0.502045 -5.280897,0 -5.568159,0.06825 -5.568159,1.322917 0,1.201264 0.377337,1.322917 4.103388,1.322917 4.415747,0 4.457817,0.02591 4.580703,2.820726 0.118229,2.688888 -0.166339,3.423333 -1.46258,3.774786 -0.552092,0.14969 -1.344866,0.589873 -1.761722,0.978184 -0.875548,0.815596 -1.741381,2.573195 -1.749812,3.552033 -0.0071,0.821343 -0.45319,1.309688 -1.196435,1.309688 -0.813843,0 -1.190625,-0.508596 -1.190625,-1.607152 0,-2.254533 1.367636,-4.563666 3.48104,-5.87743 1.046218,-0.650365 1.281459,-0.935051 1.281459,-1.550801 v -0.754201 h -2.72218 c -2.176293,0 -2.925062,-0.103434 -3.733884,-0.515795 -0.947901,-0.483268 -1.053509,-0.488402 -1.674657,-0.08141 -0.878504,0.575618 -2.984529,0.56504 -3.876607,-0.01947 -0.654358,-0.428753 -0.730984,-0.428753 -1.385343,0 -0.415411,0.272188 -1.20971,0.453856 -1.984375,0.453856 h -1.291703 l 0.0015,4.380889 c 8.11e-4,2.40949 0.126925,4.832642 0.280252,5.384785 0.30839,1.110533 2.008338,2.973516 3.360076,3.682325 l 0.86368,0.452886 -0.06993,8.24621 c -0.06714,7.917284 -0.09104,8.259681 -0.599096,8.583925 -0.349985,0.223361 -0.730745,0.259533 -1.124479,0.106826 z M 41.024134,51.734755 c 0.18732,-0.18732 0.3175,-1.087732 0.3175,-2.196042 0,-2.050664 -0.24362,-2.513542 -1.322916,-2.513542 -1.066937,0 -1.322917,0.467347 -1.322917,2.415268 0,1.265648 0.120187,1.900455 0.415774,2.196042 0.49346,0.49346 1.467332,0.543501 1.912559,0.09827 z m 5.335274,-0.194273 c 0.393468,-0.735202 0.356828,-6.707793 -0.04361,-7.108228 -0.174625,-0.174625 -0.627063,-0.3175 -1.005417,-0.3175 -1.194503,0 -1.322917,0.385239 -1.322917,3.96875 0,2.240139 0.104154,3.437904 0.3175,3.651251 0.503097,0.503097 1.744021,0.385752 2.054441,-0.194273 z M 51.197363,46.7642 c 0.651569,-0.0032 0.727604,-0.09841 0.727604,-0.910755 0,-1.042557 -0.569014,-1.738691 -1.42119,-1.738691 -0.881891,0 -1.224643,0.504782 -1.224643,1.803567 0,1.082729 0.04373,1.156848 0.595312,1.00903 0.327422,-0.08775 0.922735,-0.161164 1.322917,-0.163151 z m 6.019271,-0.842675 c 0,-1.002322 -0.651753,-1.806771 -1.463819,-1.806771 -0.758402,0 -1.169591,0.512182 -1.361728,1.696183 l -0.154107,0.949651 h 1.489827 1.489827 z m 54.305726,39.451589 -0.59532,-0.230889 v -7.532711 -7.532712 l -1.18086,-0.848035 c -1.26876,-0.91115 -2.21527,-2.125307 -2.97408,-3.815053 -0.426,-0.948646 -0.47526,-1.954357 -0.47526,-9.703699 0,-8.357476 0.0184,-8.670253 0.5535,-9.392709 1.02692,-1.38658 2.21104,-1.998711 3.61368,-1.868095 0.90406,0.08419 1.25677,0.02225 1.25677,-0.220704 0,-0.571766 1.38336,-2.01809 2.29426,-2.398688 1.15616,-0.483074 1.90781,-0.454686 3.02364,0.114194 0.89288,0.455219 0.97547,0.455509 1.97417,0.0069 1.3344,-0.59935 2.15469,-0.59977 3.32776,-0.0017 0.91304,0.465495 0.96991,0.465001 1.84188,-0.01599 1.67871,-0.926009 4.22533,-0.103063 5.13707,1.660055 0.21609,0.417863 0.39289,1.295874 0.39289,1.951134 0,1.156544 0.0346,1.206694 1.18356,1.714932 2.2031,0.974533 2.25389,1.190201 2.25503,9.574394 0.001,8.908988 -0.0364,9.07281 -2.6827,11.686386 l -1.80585,1.783523 -0.0703,7.312476 c -0.0677,7.034007 -0.091,7.326161 -0.61178,7.671832 -0.46166,0.306408 -0.62734,0.299185 -1.12448,-0.04902 -0.57958,-0.405959 -0.58304,-0.456754 -0.58304,-8.575648 v -8.167269 l 1.51861,-1.011999 c 0.99067,-0.660178 1.74952,-1.425919 2.18281,-2.202624 0.65425,-1.172775 0.66545,-1.293171 0.74682,-8.030768 0.0744,-6.164874 0.0378,-6.889705 -0.37174,-7.342188 -0.41522,-0.458808 -0.8792,-0.502045 -5.3875,-0.502045 -5.2809,0 -5.56816,0.06825 -5.56816,1.322917 0,1.201264 0.37734,1.322917 4.10339,1.322917 4.41574,0 4.45781,0.02591 4.5807,2.820726 0.11823,2.688888 -0.16634,3.423333 -1.46258,3.774786 -0.55209,0.14969 -1.34487,0.589873 -1.76172,0.978184 -0.87555,0.815596 -1.74139,2.573195 -1.74982,3.552033 -0.007,0.821343 -0.45319,1.309688 -1.19643,1.309688 -0.81384,0 -1.19063,-0.508596 -1.19063,-1.607152 0,-2.254533 1.36764,-4.563666 3.48104,-5.87743 1.04622,-0.650365 1.28146,-0.935051 1.28146,-1.550801 v -0.754201 h -2.72218 c -2.17629,0 -2.92505,-0.103434 -3.73388,-0.515795 -0.9479,-0.483268 -1.05351,-0.488402 -1.67465,-0.08141 -0.87851,0.575618 -2.98453,0.56504 -3.87661,-0.01947 -0.65436,-0.428753 -0.73098,-0.428753 -1.38534,0 -0.41541,0.272188 -1.20971,0.453856 -1.98438,0.453856 h -1.2917 l 10e-4,4.380889 c 8.1e-4,2.40949 0.12692,4.832642 0.28025,5.384785 0.30839,1.110533 2.00834,2.973516 3.36008,3.682325 l 0.86368,0.452886 -0.0699,8.24621 c -0.0671,7.917284 -0.091,8.259681 -0.5991,8.583925 -0.34998,0.223361 -0.73075,0.259533 -1.12448,0.106826 z m -0.38365,-33.638359 c 0.4214,-0.421403 0.4214,-3.970682 0,-4.392084 -0.17462,-0.174625 -0.62706,-0.3175 -1.00542,-0.3175 -1.06693,0 -1.32291,0.467347 -1.32291,2.415268 0,1.265648 0.12019,1.900455 0.41577,2.196042 0.49346,0.49346 1.46733,0.543501 1.91256,0.09827 z m 5.33528,-0.194273 c 0.39346,-0.735202 0.35682,-6.707793 -0.0436,-7.108228 -0.17463,-0.174625 -0.62707,-0.3175 -1.00542,-0.3175 -0.37835,0 -0.83079,0.142875 -1.00542,0.3175 -0.4399,0.439905 -0.4399,6.862596 0,7.302501 0.5031,0.503097 1.74402,0.385752 2.05444,-0.194273 z m 4.83795,-4.776282 c 0.65156,-0.0032 0.7276,-0.09841 0.7276,-0.910755 0,-1.042557 -0.56901,-1.738691 -1.42119,-1.738691 -0.88189,0 -1.22464,0.504782 -1.22464,1.803567 0,1.082729 0.0437,1.156848 0.59531,1.00903 0.32742,-0.08775 0.92273,-0.161164 1.32292,-0.163151 z m 6.01927,-0.842675 c 0,-1.002322 -0.65176,-1.806771 -1.46382,-1.806771 -0.7584,0 -1.16959,0.512182 -1.36173,1.696183 l -0.15411,0.949651 h 1.48983 1.48983 z"
       id="path1"
       sodipodi:nodetypes="ccccsssssssscssssssscsssscsssssssssscsssscssssssccsscssccsssssssssssssscsssscssscccsccccsssssssscssssscsccssscssccsssssscsssscssssssccsscssccssssssssssssscsssscssscccs" /><text
       xml:space="preserve"
       style="font-size:11.2889px;font-family:sans-serif;-inkscape-font-specification:sans-serif;writing-mode:lr-tb;direction:ltr;fill:#000000;stroke-width:0.264583"
       x="76.668518"
       y="102.0238"
       id="text1"><tspan
         sodipodi:role="line"
         id="tspan1"
         style="stroke-width:0.264583"
         x="76.668518"
         y="102.0238">Tie</tspan></text></g></svg>
