<?xml version="1.0" encoding="UTF-8" standalone="no"?>
<!-- Created with Inkscape (http://www.inkscape.org/) -->

<svg
   width="169.33333mm"
   height="127mm"
   viewBox="0 0 169.33333 127"
   version="1.1"
   id="svg1"
   sodipodi:docname="rock-paper.svg"
   inkscape:export-filename="1.svg"
   inkscape:export-xdpi="96"
   inkscape:export-ydpi="96"
   inkscape:version="1.4.3 (fcd0343856, 2026-01-01)"
   xml:space="preserve"
   xmlns:inkscape="http://www.inkscape.org/namespaces/inkscape"
   xmlns:sodipodi="http://sodipodi.sourceforge.net/DTD/sodipodi-0.dtd"
   xmlns="http://www.w3.org/2000/svg"
   xmlns:svg="http://www.w3.org/2000/svg"><sodipodi:namedview
     id="namedview1"
     pagecolor="#ffffff"
     bordercolor="#000000"
     borderopacity="0.25"
     inkscape:showpageshadow="2"
     inkscape:pageopacity="0.0"
     inkscape:pagecheckerboard="0"
     inkscape:deskcolor="#d1d1d1"
     inkscape:document-units="mm"
     inkscape:zoom="0.97890098"
     inkscape:cx="245.68368"
     inkscape:cy="207.88619"
     inkscape:window-width="1854"
     inkscape:window-height="1011"
     inkscape:window-x="66"
     inkscape:window-y="32"
     inkscape:window-maximized="1"
     inkscape:current-layer="svg1" /><defs
     id="defs1" /><g
     id="g1"
     transform="translate(0,-9.4313003)"><path
       style="fill:#000000"
       d="m 108.87661,91.119713 c -0.17073,-0.319012 -0.27389,-3.400229 -0.27389,-8.180505 v -7.668732 l -0.93429,-0.577424 c -0.51386,-0.317584 -1.34807,-1.119334 -1.8538,-1.781667 -1.64523,-2.154695 -1.70987,-2.691742 -1.70942,-14.202403 3.7e-4,-9.313162 0.0462,-10.428062 0.46302,-11.257642 0.67136,-1.336242 1.98377,-2.121941 3.54445,-2.121941 h 1.28379 v -1.754707 c 0,-1.336261 0.13629,-1.975232 0.57152,-2.679446 0.72929,-1.180021 2.54798,-2.034787 3.82119,-1.79593 0.80993,0.151944 0.89905,0.108504 0.89994,-0.438657 0.003,-1.783929 2.46354,-3.592326 4.39496,-3.229991 1.25448,0.235343 2.66779,1.500467 3.03118,2.713374 0.28185,0.940709 0.32559,0.967649 1.57137,0.967649 1.38469,0 2.31074,0.512857 3.28828,1.821086 0.51633,0.691003 0.55259,1.17136 0.67781,8.979486 l 0.13229,8.249429 0.90881,-2.116667 c 1.23356,-2.873039 1.68064,-3.456055 3.05187,-3.979731 1.94309,-0.742073 3.85159,-0.04635 4.77586,1.740995 0.80854,1.563543 0.55609,2.437803 -2.98188,10.326891 -1.85541,4.137245 -3.65059,7.967984 -3.98929,8.512754 -0.33869,0.544771 -1.14235,1.368626 -1.7859,1.83079 l -1.17009,0.840298 v 7.741458 c 0,6.684911 -0.0567,7.798202 -0.41578,8.157231 -0.58696,0.58696 -1.33611,0.515981 -1.81818,-0.172264 -0.35071,-0.500702 -0.41188,-1.774615 -0.41188,-8.577319 0,-4.394105 0.0742,-8.182685 0.16493,-8.419066 0.0907,-0.236382 0.61369,-0.658732 1.16219,-0.938556 1.3139,-0.670301 2.62179,-2.258033 3.42069,-4.152605 0.35573,-0.843586 1.82074,-4.148943 3.25559,-7.345238 1.80773,-4.026951 2.56252,-5.995891 2.45805,-6.412117 -0.17292,-0.688958 -1.32141,-1.091242 -1.96959,-0.68989 -0.23214,0.14374 -1.2555,2.179875 -2.27415,4.524743 -1.01865,2.344868 -1.97115,4.373464 -2.11667,4.507991 -0.14552,0.134527 -1.13962,0.370123 -2.20911,0.523548 -3.04014,0.436126 -4.80234,1.983189 -4.80234,4.216046 0,0.836261 -0.69433,1.654667 -1.4038,1.654667 -0.75018,0 -1.29743,-1.1516 -1.08976,-2.293225 0.48654,-2.674749 2.53156,-5.03102 5.05748,-5.827248 l 1.40483,-0.442832 v -9.556057 c 0,-7.079711 -0.0823,-9.638333 -0.3175,-9.873557 -0.5031,-0.503097 -1.74403,-0.385752 -2.05445,0.194273 -0.16734,0.312685 -0.27389,3.024295 -0.27389,6.970452 0,6.127024 -0.0272,6.48332 -0.53024,6.938541 -0.43813,0.396498 -0.64497,0.427589 -1.19062,0.178971 L 119.9798,55.924078 V 47.51061 c 0,-7.186626 -0.0601,-8.499215 -0.41188,-9.001506 -0.49955,-0.713207 -1.46531,-0.762035 -2.06065,-0.104184 -0.38837,0.42914 -0.43788,1.447037 -0.43788,9.001506 v 8.517652 l -0.62799,0.286131 c -0.45586,0.207701 -0.78222,0.203594 -1.19063,-0.01498 -0.55052,-0.294628 -0.56263,-0.442099 -0.56263,-6.847516 0,-7.114138 -0.11464,-7.72248 -1.45521,-7.72248 -1.37424,0 -1.45521,0.500854 -1.45521,9.001789 0,8.223167 -0.0334,8.460712 -1.19063,8.460712 -1.10451,0 -1.19062,-0.396088 -1.19062,-5.476875 0,-4.489097 -0.0386,-4.88043 -0.52917,-5.371042 -0.62621,-0.626212 -1.03907,-0.662762 -1.73537,-0.153633 -0.49157,0.359433 -0.5148,0.798035 -0.54191,10.229608 -0.0156,5.419741 0.0755,10.316145 0.20238,10.880897 0.35039,1.559464 1.42392,2.969813 2.85234,3.747257 0.70603,0.384268 1.35572,0.886372 1.44375,1.115786 0.088,0.229413 0.16006,4.012292 0.16006,8.406397 0,6.802704 -0.0612,8.076617 -0.41188,8.577319 -0.5103,0.728563 -1.58851,0.770516 -1.96006,0.07627 z M 37.760538,90.821092 37.165226,90.590204 v -7.517749 -7.517748 l -0.932115,-0.710959 c -3.539236,-2.699507 -3.906447,-4.145414 -3.783281,-14.896812 0.08087,-7.059555 0.113217,-7.473931 0.638682,-8.182563 1.027874,-1.386171 2.211517,-1.997755 3.613693,-1.867183 0.904055,0.08419 1.256771,0.02225 1.256771,-0.220704 0,-0.571766 1.383353,-2.01809 2.294252,-2.398688 1.16781,-0.487942 1.908653,-0.45426 3.073763,0.139746 0.963338,0.491138 1.000634,0.491138 1.963971,0 1.22782,-0.625978 2.086742,-0.632674 3.277576,-0.02555 0.892885,0.455218 0.975466,0.455509 1.974173,0.0069 1.325565,-0.59538 1.838526,-0.589395 3.219653,0.03756 1.430955,0.649577 2.185983,1.858747 2.18729,3.50292 9.69e-4,1.219017 0.02512,1.255065 1.184557,1.767939 2.20206,0.974076 2.253694,1.192741 2.256335,9.555381 0.002,6.270888 -0.06185,7.45569 -0.462032,8.57647 -0.497101,1.39221 -2.214277,3.502466 -3.340539,4.105223 l -0.68769,0.368041 -0.07013,7.532061 c -0.06756,7.255426 -0.09002,7.54526 -0.611571,7.891425 -0.461667,0.306419 -0.627337,0.299198 -1.124479,-0.04901 -0.579672,-0.406018 -0.583041,-0.455765 -0.583041,-8.607765 v -8.199387 l 0.827093,-0.450715 c 1.51679,-0.826557 2.417824,-1.739768 3.044589,-3.085736 0.599507,-1.287435 0.621154,-1.564196 0.623649,-7.973451 0.0024,-6.09835 -0.03687,-6.675426 -0.481269,-7.077605 -0.413472,-0.374187 -1.194759,-0.437882 -5.371042,-0.437882 -5.232011,0 -5.522187,0.06952 -5.522187,1.322917 0,1.201264 0.377338,1.322916 4.103389,1.322916 4.404826,0 4.420148,0.0096 4.484921,2.801291 0.06848,2.95133 -0.06557,3.309532 -1.40567,3.756232 -1.909159,0.636387 -3.478473,2.770867 -3.478473,4.731196 0,0.668674 -0.496336,1.146699 -1.190625,1.146699 -0.812643,0 -1.190625,-0.508242 -1.190625,-1.600935 0,-2.145262 1.392125,-4.50634 3.439041,-5.832697 1.054374,-0.683211 1.323459,-1.00409 1.323459,-1.578206 v -0.720635 l -2.988451,-0.09487 c -2.297541,-0.07293 -3.153919,-0.203285 -3.704166,-0.563821 -0.677673,-0.444028 -0.752535,-0.444831 -1.408388,-0.0151 -0.907959,0.594918 -2.998365,0.594918 -3.906324,0 -0.654359,-0.428752 -0.730985,-0.428752 -1.385343,0 -0.415412,0.272188 -1.209711,0.453856 -1.984375,0.453856 h -1.291704 l 0.0015,4.38089 c 8.11e-4,2.409489 0.13358,4.856747 0.295042,5.43835 0.318946,1.148876 1.910222,2.874257 3.346717,3.62876 l 0.862249,0.452886 -0.06993,8.24621 c -0.06714,7.917284 -0.09104,8.259681 -0.599096,8.583925 -0.349985,0.223361 -0.730745,0.259533 -1.124479,0.106825 z m -0.35104,-33.69326 c 0.19094,-0.230069 0.279165,-1.103008 0.230834,-2.283985 -0.06421,-1.568932 -0.173528,-1.974652 -0.609873,-2.263428 -0.428189,-0.283379 -0.659873,-0.288123 -1.190625,-0.02438 -0.590104,0.293239 -0.667149,0.512913 -0.737104,2.101681 -0.04297,0.975817 0.05052,2.01458 0.207746,2.308362 0.336599,0.628939 1.628656,0.728503 2.099022,0.161747 z m 5.30267,-0.139371 c 0.393468,-0.735202 0.356827,-6.707793 -0.04361,-7.108228 -0.174626,-0.174625 -0.627064,-0.3175 -1.005418,-0.3175 -1.194503,0 -1.322916,0.385239 -1.322916,3.96875 0,2.240139 0.104153,3.437904 0.3175,3.65125 0.503097,0.503097 1.744021,0.385753 2.054442,-0.194272 z m 5.069465,-4.779895 c 0.37719,0 0.496093,-0.194414 0.496093,-0.811144 0,-1.20999 -0.435596,-1.834689 -1.279309,-1.834689 -1.024737,0 -1.366524,0.451651 -1.366524,1.805781 0,1.170164 4.36e-4,1.170694 0.826823,1.005417 0.454753,-0.09095 1.050065,-0.165365 1.322917,-0.165365 z m 5.78776,-0.907143 c 0,-0.498928 -0.187098,-1.094241 -0.415774,-1.322916 -0.988189,-0.988189 -2.494643,-0.08529 -2.494643,1.495181 0,0.714373 0.0406,0.734878 1.455209,0.734878 h 1.455208 z"
       id="path1"
       sodipodi:nodetypes="sscssscscssscssssscsssssscscsscsssssssssssscscsssscscsscssssssscsscscssssccccssssssssscssscsscsssscsscssssssssssscssssssccsscssccssssssssssssssssssssssssscs" /><text
       xml:space="preserve"
       style="font-size:11.2889px;font-family:sans-serif;-inkscape-font-specification:sans-serif;writing-mode:lr-tb;direction:ltr;fill:#000000;stroke-width:0.264583"
       x="53.906063"
       y="108.13048"
       id="text1"><tspan
         sodipodi:role="line"
         id="tspan1"
         style="stroke-width:0.264583"
         x="53.906063"
         y="108.13048">Paper wins</tspan></text></g></svg>
