<?xml version="1.0" encoding="UTF-8" standalone="no"?>
<!-- Created with Inkscape (http://www.inkscape.org/) -->

<svg
   width="169.33333mm"
   height="127mm"
   viewBox="0 0 169.33333 127"
   version="1.1"
   id="svg1"
   sodipodi:docname="scissors-scissors.svg"
   inkscape:export-filename="scissors-scissors.svg"
   inkscape:export-xdpi="96"
   inkscape:export-ydpi="96"
   inkscape:version="1.4.3 (fcd0343856, 2026-01-01)"
   xml:space="preserve"
   xmlns:inkscape="http://www.inkscape.org/namespaces/inkscape"
   xmlns:sodipodi="http://sodipodi.sourceforge.net/DTD/sodipodi-0.dtd"
   xmlns="http://www.w3.org/2000/svg"
   xmlns:svg="http://www.w3.org/2000/svg"><sodipodi:namedview
     id="namedview1"
     pagecolor="#ffffff"
     bordercolor="#000000"
     borderopacity="0.25"
     inkscape:showpageshadow="2"
     inkscape:pageopacity="0.0"
     inkscape:pagecheckerboard="0"
     inkscape:deskcolor="#d1d1d1"
     inkscape:document-units="mm"
     inkscape:zoom="0.97890098"
     inkscape:cx="245.68368"
     inkscape:cy="207.88619"
     inkscape:window-width="1854"
     inkscape:window-height="1011"
     inkscape:window-x="66"
     inkscape:window-y="32"
     inkscape:window-maximized="1"
     inkscape:current-layer="svg1" /><defs
     id="defs1" /><g
     id="g1"
     transform="translate(0,-8.3371345)"><path
       style="fill:#000000"
       d="m 40.370515,91.167227 c -0.42434,-0.24716 -0.463021,-0.91884 -0.463021,-8.04017 v -7.770482 l -0.91487,-0.565421 c -1.200997,-0.742257 -2.198698,-1.948501 -2.960058,-3.57878 -0.608046,-1.30199 -0.617844,-1.46103 -0.619415,-10.054167 -0.0015,-8.300071 0.02484,-8.774604 0.533639,-9.609145 0.68184,-1.118358 2.548593,-1.990578 3.769922,-1.761455 0.798541,0.149807 0.90529,0.08645 1.320121,-0.783455 0.517724,-1.085677 1.844066,-1.998722 2.905557,-2.000165 0.895578,-0.0012 0.894989,0.02864 0.08514,-4.320702 -0.654972,-3.517556 -0.621056,-4.316622 0.238925,-5.629119 1.03923,-1.586067 3.729291,-1.981499 5.304807,-0.779794 0.501854,0.382783 1.036382,0.927515 1.18784,1.210517 0.151457,0.283001 0.571973,2.153396 0.934479,4.156433 0.362505,2.003036 0.751336,3.864526 0.864068,4.136644 0.145671,0.351629 0.542618,-0.719961 1.372125,-3.704167 1.031897,-3.712311 1.27739,-4.311368 2.118326,-5.169168 1.580966,-1.612672 3.45272,-1.682458 5.150234,-0.192022 1.756844,1.54253 1.745602,1.957816 -0.244947,9.048848 -0.968318,3.449487 -1.687434,6.390143 -1.598036,6.534793 0.0894,0.144649 0.320255,0.262998 0.513015,0.262998 0.192759,0 0.781045,0.476593 1.307301,1.059096 l 0.956829,1.059096 -0.01161,7.473717 c -0.0087,5.595321 -0.101795,7.726546 -0.370428,8.479666 -0.532888,1.49397 -1.687565,3.028417 -2.974204,3.952411 l -1.141671,0.819887 v 7.751047 c 0,7.528149 -0.0155,7.759349 -0.539161,8.039599 -0.723096,0.38699 -1.544115,0.0913 -1.717058,-0.6183 -0.07743,-0.31772 -0.107473,-4.26772 -0.06676,-8.777779 l 0.07402,-8.200105 0.94188,-0.443394 c 1.26763,-0.596743 2.796005,-2.337652 3.140078,-3.576734 0.162815,-0.58633 0.281335,-3.754958 0.282191,-7.544349 0.0015,-6.45233 -0.0058,-6.538548 -0.586563,-6.945313 -0.478469,-0.335133 -1.460941,-0.411878 -5.272767,-0.411878 -5.072486,0 -5.516277,0.117387 -5.516277,1.459104 0,1.173756 0.855214,1.450921 4.490642,1.455364 1.823011,0.0022 3.493159,0.116935 3.711441,0.254903 0.288735,0.182499 0.422348,0.867561 0.490364,2.5142 0.107025,2.591021 -0.225243,3.404759 -1.493837,3.658478 -0.932466,0.186494 -2.318142,1.30402 -2.819806,2.274131 -0.200579,0.387877 -0.449952,1.177367 -0.554162,1.754422 -0.104211,0.577055 -0.307591,1.198019 -0.451955,1.37992 -0.361699,0.455744 -1.38571,0.415194 -1.789088,-0.07085 -0.446787,-0.538345 -0.180562,-2.697513 0.496158,-4.023993 0.584856,-1.146413 2.571686,-3.092466 3.437976,-3.367416 0.435276,-0.138151 0.567683,-0.392008 0.567683,-1.088388 v -0.908212 h -2.804284 c -2.032587,0 -3.051919,-0.11751 -3.704167,-0.427022 -0.828131,-0.392974 -0.971633,-0.392974 -1.799764,0 -0.494935,0.234862 -1.280613,0.427022 -1.745951,0.427022 -0.465338,0 -1.251016,-0.19216 -1.745951,-0.427022 -0.833577,-0.395558 -0.970104,-0.3937 -1.852906,0.02522 -0.568983,0.269999 -1.368629,0.412605 -1.984375,0.353884 l -1.031351,-0.09836 0.0058,4.6372 c 0.0049,3.91389 0.08099,4.802279 0.487813,5.695534 0.461112,1.012466 2.414697,3.042708 2.927823,3.042708 0.134708,0 0.432021,0.187099 0.660696,0.415774 0.360297,0.360297 0.415774,1.522786 0.415774,8.712352 0,7.189569 -0.05548,8.352059 -0.415774,8.712349 -0.478329,0.47833 -0.849298,0.51043 -1.502455,0.13 z M 39.848623,57.174454 c 0.51563,-0.361162 0.588038,-0.647859 0.588038,-2.328333 0,-2.043128 -0.243987,-2.551456 -1.224643,-2.551456 -1.061736,0 -1.42119,0.670182 -1.42119,2.649729 0,1.578921 0.07738,1.872383 0.588038,2.23006 0.323421,0.226533 0.654116,0.411878 0.734878,0.411878 0.08076,0 0.411458,-0.185345 0.734879,-0.411878 z m 5.291666,0 c 0.553781,-0.387883 0.588038,-0.602576 0.588038,-3.685268 0,-3.461364 -0.207407,-4.104938 -1.322916,-4.104938 -1.115509,0 -1.322917,0.643574 -1.322917,4.104938 0,3.082692 0.03426,3.297385 0.588038,3.685268 0.323421,0.226533 0.654116,0.411878 0.734879,0.411878 0.08076,0 0.411457,-0.185345 0.734878,-0.411878 z m 5.879705,-5.164738 c 0,-0.883091 -2.461637,-13.383734 -2.689634,-13.658453 -0.638448,-0.769283 -2.337449,-0.113147 -2.337449,0.902696 0,0.920447 1.631838,9.271751 1.993422,10.201789 0.213305,0.548648 0.387754,1.441617 0.387663,1.984375 l -1.64e-4,0.986834 1.323081,-0.09168 c 0.727694,-0.05043 1.323081,-0.196926 1.323081,-0.325559 z m 7.24194,-5.939983 c 0.964641,-3.423713 1.753893,-6.435994 1.753893,-6.693959 0,-0.257964 -0.142875,-0.611901 -0.3175,-0.786526 -0.415863,-0.415864 -1.662133,-0.407618 -1.999491,0.01323 -0.145815,0.181901 -1.058799,3.128698 -2.028854,6.548438 -0.970055,3.419739 -1.825853,6.426068 -1.901775,6.680729 -0.119589,0.401135 0.05428,0.463021 1.300897,0.463021 h 1.438936 z m 53.546076,45.097494 c -0.42434,-0.24716 -0.46302,-0.91884 -0.46302,-8.04017 v -7.770482 l -0.91487,-0.565421 c -1.201,-0.742257 -2.1987,-1.948501 -2.96006,-3.57878 -0.60804,-1.30199 -0.61784,-1.46103 -0.61941,-10.054167 -0.002,-8.300071 0.0248,-8.774604 0.53364,-9.609145 0.68184,-1.118358 2.54859,-1.990578 3.76992,-1.761455 0.79854,0.149807 0.90529,0.08645 1.32012,-0.783455 0.51772,-1.085677 1.84406,-1.998722 2.90556,-2.000165 0.89557,-0.0012 0.89499,0.02864 0.0851,-4.320702 -0.65498,-3.517556 -0.62106,-4.316622 0.23892,-5.629119 1.03923,-1.586067 3.72929,-1.981499 5.30481,-0.779794 0.50185,0.382783 1.03638,0.927515 1.18784,1.210517 0.15146,0.283001 0.57197,2.153396 0.93448,4.156433 0.3625,2.003036 0.75133,3.864526 0.86407,4.136644 0.14567,0.351629 0.54261,-0.719961 1.37212,-3.704167 1.0319,-3.712311 1.27739,-4.311368 2.11833,-5.169168 1.58096,-1.612672 3.45272,-1.682458 5.15023,-0.192022 1.75684,1.54253 1.7456,1.957816 -0.24495,9.048848 -0.96831,3.449487 -1.68743,6.390143 -1.59803,6.534793 0.0894,0.144649 0.32025,0.262998 0.51301,0.262998 0.19276,0 0.78105,0.476593 1.3073,1.059096 l 0.95683,1.059096 -0.0116,7.473717 c -0.009,5.595321 -0.1018,7.726546 -0.37043,8.479666 -0.53289,1.49397 -1.68756,3.028417 -2.9742,3.952411 l -1.14167,0.819887 v 7.751047 c 0,7.528149 -0.0155,7.759349 -0.53916,8.039599 -0.7231,0.38699 -1.54412,0.0913 -1.71706,-0.6183 -0.0774,-0.31772 -0.10748,-4.26772 -0.0668,-8.777779 l 0.074,-8.200105 0.94188,-0.443394 c 1.26763,-0.596743 2.796,-2.337652 3.14008,-3.576734 0.16281,-0.58633 0.28133,-3.754958 0.28219,-7.544349 10e-4,-6.45233 -0.006,-6.538548 -0.58657,-6.945313 -0.47846,-0.335133 -1.46094,-0.411878 -5.27276,-0.411878 -5.07249,0 -5.51628,0.117387 -5.51628,1.459104 0,1.173756 0.85521,1.450921 4.49064,1.455364 1.82301,0.0022 3.49316,0.116935 3.71144,0.254903 0.28874,0.182499 0.42235,0.867561 0.49037,2.5142 0.10702,2.591021 -0.22525,3.404759 -1.49384,3.658478 -0.93247,0.186494 -2.31814,1.30402 -2.81981,2.274131 -0.20057,0.387877 -0.44995,1.177367 -0.55416,1.754422 -0.10421,0.577055 -0.30759,1.198019 -0.45195,1.37992 -0.3617,0.455744 -1.38571,0.415194 -1.78909,-0.07085 -0.44679,-0.538345 -0.18056,-2.697513 0.49616,-4.023993 0.58485,-1.146413 2.57168,-3.092466 3.43797,-3.367416 0.43528,-0.138151 0.56769,-0.392008 0.56769,-1.088388 v -0.908212 h -2.80429 c -2.03258,0 -3.05192,-0.11751 -3.70416,-0.427022 -0.82814,-0.392974 -0.97164,-0.392974 -1.79977,0 -0.49493,0.234862 -1.28061,0.427022 -1.74595,0.427022 -0.46534,0 -1.25102,-0.19216 -1.74595,-0.427022 -0.83358,-0.395558 -0.9701,-0.3937 -1.85291,0.02522 -0.56898,0.269999 -1.36863,0.412605 -1.98437,0.353884 l -1.03135,-0.09836 0.006,4.6372 c 0.005,3.91389 0.081,4.802279 0.48781,5.695534 0.46111,1.012466 2.4147,3.042708 2.92782,3.042708 0.13471,0 0.43202,0.187099 0.6607,0.415774 0.3603,0.360297 0.41577,1.522786 0.41577,8.712352 0,7.189569 -0.0555,8.352059 -0.41577,8.712349 -0.47833,0.47833 -0.8493,0.51043 -1.50246,0.13 z m -0.52189,-33.992773 c 0.51563,-0.361162 0.58804,-0.647859 0.58804,-2.328333 0,-2.043128 -0.24399,-2.551456 -1.22465,-2.551456 -1.06173,0 -1.42119,0.670182 -1.42119,2.649729 0,1.578921 0.0774,1.872383 0.58804,2.23006 0.32342,0.226533 0.65412,0.411878 0.73488,0.411878 0.0808,0 0.41146,-0.185345 0.73488,-0.411878 z m 5.29167,0 c 0.55378,-0.387883 0.58803,-0.602576 0.58803,-3.685268 0,-3.461364 -0.2074,-4.104938 -1.32291,-4.104938 -1.11551,0 -1.32292,0.643574 -1.32292,4.104938 0,3.082692 0.0343,3.297385 0.58804,3.685268 0.32342,0.226533 0.65411,0.411878 0.73488,0.411878 0.0808,0 0.41145,-0.185345 0.73488,-0.411878 z m 5.8797,-5.164738 c 0,-0.883091 -2.46163,-13.383734 -2.68963,-13.658453 -0.63845,-0.769283 -2.33745,-0.113147 -2.33745,0.902696 0,0.920447 1.63184,9.271751 1.99342,10.201789 0.21331,0.548648 0.38776,1.441617 0.38767,1.984375 l -1.7e-4,0.986834 1.32308,-0.09168 c 0.7277,-0.05043 1.32308,-0.196926 1.32308,-0.325559 z m 7.24194,-5.939983 c 0.96464,-3.423713 1.7539,-6.435994 1.7539,-6.693959 0,-0.257964 -0.14288,-0.611901 -0.3175,-0.786526 -0.41587,-0.415864 -1.66214,-0.407618 -1.99949,0.01323 -0.14582,0.181901 -1.0588,3.128698 -2.02886,6.548438 -0.97005,3.419739 -1.82585,6.426068 -1.90177,6.680729 -0.11959,0.401135 0.0543,0.463021 1.30089,0.463021 h 1.43894 z"
       id="path1"
       sodipodi:nodetypes="sscsscssscssssssssssssscssscsssscsscssscsssssssssscssssssscssssssssssssssssssssssssssscsssssssssscscscssccssssssssssssssssccsscsscccssccsscsssssssssscsssssssccsssssccssssssssssssssssssscsssssssssscs" /><text
       xml:space="preserve"
       style="font-size:11.2889px;font-family:sans-serif;-inkscape-font-specification:sans-serif;writing-mode:lr-tb;direction:ltr;fill:#000000;stroke-width:0.264583"
       x="76.668518"
       y="107.94154"
       id="text1"><tspan
         sodipodi:role="line"
         id="tspan1"
         style="stroke-width:0.264583"
         x="76.668518"
         y="107.94154">Tie</tspan></text></g></svg>
