<?xml version="1.0" encoding="UTF-8" standalone="no"?>
<!-- Created with Inkscape (http://www.inkscape.org/) -->

<svg
   width="169.33333mm"
   height="127mm"
   viewBox="0 0 169.33333 127"
   version="1.1"
   id="svg1"
   sodipodi:docname="scissors-paper.svg"
   inkscape:export-filename="1.svg"
   inkscape:export-xdpi="96"
   inkscape:export-ydpi="96"
   inkscape:version="1.4.3 (fcd0343856, 2026-01-01)"
   xml:space="preserve"
   xmlns:inkscape="http://www.inkscape.org/namespaces/inkscape"
   xmlns:sodipodi="http://sodipodi.sourceforge.net/DTD/sodipodi-0.dtd"
   xmlns="http://www.w3.org/2000/svg"
   xmlns:svg="http://www.w3.org/2000/svg"><sodipodi:namedview
     id="namedview1"
     pagecolor="#ffffff"
     bordercolor="#000000"
     borderopacity="0.25"
     inkscape:showpageshadow="2"
     inkscape:pageopacity="0.0"
     inkscape:pagecheckerboard="0"
     inkscape:deskcolor="#d1d1d1"
     inkscape:document-units="mm"
     inkscape:zoom="0.97890098"
     inkscape:cx="245.68368"
     inkscape:cy="207.88619"
     inkscape:window-width="1854"
     inkscape:window-height="1011"
     inkscape:window-x="66"
     inkscape:window-y="32"
     inkscape:window-maximized="1"
     inkscape:current-layer="svg1" /><defs
     id="defs1" /><g
     id="g1"
     transform="translate(0,-8.3371365)"><path
       style="fill:#000000"
       d="m 40.153834,91.736385 c -0.424277,-0.247118 -0.463021,-0.917436 -0.463021,-8.010814 v -7.741129 l -1.194909,-0.84225 c -1.293805,-0.911957 -2.625951,-2.786257 -3.040254,-4.277565 -0.145067,-0.522178 -0.260017,-4.674268 -0.260289,-9.401842 -4.56e-4,-7.932133 0.03212,-8.520145 0.515991,-9.313718 0.679452,-1.114339 1.972092,-1.761482 3.482261,-1.743349 1.134866,0.01363 1.253277,-0.04967 1.650229,-0.882083 0.496705,-1.041602 1.837496,-1.949067 2.881867,-1.950487 0.895578,-0.0012 0.894989,0.02864 0.08514,-4.320702 -0.654972,-3.517556 -0.621056,-4.316622 0.238925,-5.629119 0.926676,-1.414288 3.37094,-1.908378 4.928515,-0.996263 1.445984,0.846767 1.780552,1.588697 2.489715,5.521136 0.367398,2.037292 0.760232,3.926809 0.872964,4.198927 0.145868,0.352106 0.544218,-0.715056 1.381577,-3.701189 1.288036,-4.593304 1.892043,-5.634793 3.593533,-6.196336 1.974006,-0.651481 4.322812,0.644881 4.873443,2.689768 0.254072,0.94355 0.110338,1.645435 -1.495556,7.303128 -1.698013,5.982233 -1.754351,6.271623 -1.272965,6.538729 0.277023,0.153711 0.951684,0.711951 1.499247,1.240534 l 0.995568,0.96106 -0.01161,7.505607 c -0.0087,5.622178 -0.101653,7.758036 -0.370428,8.511556 -0.532888,1.49397 -1.687565,3.028417 -2.974204,3.952411 l -1.141671,0.819887 v 7.751047 c 0,7.392444 -0.02368,7.763719 -0.511773,8.02494 -0.695293,0.37211 -0.966148,0.345674 -1.453703,-0.141881 -0.360378,-0.360378 -0.415234,-1.514882 -0.411723,-8.665105 0.0022,-4.537132 0.09153,-8.381546 0.198438,-8.543142 0.106912,-0.161596 0.560521,-0.48131 1.00802,-0.710476 1.179309,-0.603928 2.679123,-2.372027 3.003741,-3.541049 0.162815,-0.58633 0.281335,-3.754958 0.282191,-7.544349 0.0015,-6.45233 -0.0058,-6.538548 -0.586563,-6.945313 -0.478469,-0.335133 -1.460941,-0.411878 -5.272767,-0.411878 -5.072486,0 -5.516277,0.117387 -5.516277,1.459104 0,1.173756 0.855214,1.450921 4.490642,1.455364 1.823011,0.0022 3.493159,0.116935 3.711441,0.254903 0.288735,0.182499 0.422348,0.867561 0.490364,2.5142 0.107025,2.591021 -0.225243,3.404759 -1.493837,3.658478 -0.932466,0.186494 -2.318142,1.30402 -2.819806,2.274131 -0.200579,0.387877 -0.449952,1.177367 -0.554162,1.754422 -0.104211,0.577055 -0.307591,1.198019 -0.451955,1.37992 -0.361699,0.455744 -1.38571,0.415194 -1.789088,-0.07085 -0.447612,-0.539339 -0.180129,-2.698362 0.499298,-4.030149 0.565044,-1.107577 2.30609,-2.817771 3.355265,-3.295807 0.498531,-0.227146 0.647254,-0.497932 0.647254,-1.178481 v -0.883572 h -2.804284 c -2.032587,0 -3.051919,-0.11751 -3.704167,-0.427022 -0.828131,-0.392974 -0.971633,-0.392974 -1.799764,0 -0.494935,0.234862 -1.280613,0.427022 -1.745951,0.427022 -0.465338,0 -1.251016,-0.19216 -1.745951,-0.427022 -0.833577,-0.395558 -0.970104,-0.3937 -1.852906,0.02522 -0.568983,0.269999 -1.368629,0.412605 -1.984375,0.353884 l -1.031351,-0.09836 0.0058,4.6372 c 0.0049,3.91389 0.08099,4.802279 0.487813,5.695534 0.461112,1.012466 2.414697,3.042708 2.927823,3.042708 0.134708,0 0.432021,0.187099 0.660696,0.415774 0.360297,0.360297 0.415774,1.522786 0.415774,8.712352 0,7.189566 -0.05548,8.352055 -0.415774,8.712352 -0.478329,0.478329 -0.849298,0.510426 -1.502455,0.129997 z m -0.521892,-33.99277 c 0.51563,-0.361162 0.588038,-0.647859 0.588038,-2.328333 0,-2.043128 -0.243987,-2.551456 -1.224643,-2.551456 -1.061736,0 -1.42119,0.670182 -1.42119,2.649729 0,1.578921 0.07738,1.872383 0.588038,2.23006 0.323421,0.226533 0.654116,0.411878 0.734878,0.411878 0.08076,0 0.411458,-0.185345 0.734879,-0.411878 z m 5.291666,0 c 0.553781,-0.387883 0.588038,-0.602576 0.588038,-3.685268 0,-3.461364 -0.207407,-4.104938 -1.322916,-4.104938 -1.115509,0 -1.322917,0.643574 -1.322917,4.104938 0,3.082692 0.03426,3.297385 0.588038,3.685268 0.323421,0.226533 0.654116,0.411878 0.734879,0.411878 0.08076,0 0.411457,-0.185345 0.734878,-0.411878 z m 5.879705,-5.259266 c 0,-0.931465 -2.448425,-13.273286 -2.69126,-13.565885 -0.637047,-0.767594 -2.335823,-0.109665 -2.335823,0.904656 0,0.920447 1.631838,9.271751 1.993422,10.201789 0.213305,0.548648 0.387754,1.441617 0.387663,1.984375 l -1.64e-4,0.986834 1.323081,-0.09168 c 0.827839,-0.05736 1.323081,-0.214607 1.323081,-0.420087 z m 7.238482,-5.813793 c 0.966543,-3.406299 1.757351,-6.418581 1.757351,-6.693959 0,-0.275379 -0.142875,-0.643563 -0.3175,-0.818188 -0.415863,-0.415864 -1.662133,-0.407618 -1.999491,0.01323 -0.145815,0.181901 -1.058799,3.128698 -2.028854,6.548438 -0.970055,3.419739 -1.825853,6.426068 -1.901775,6.680729 -0.119561,0.401039 0.05412,0.463021 1.297439,0.463021 h 1.435479 z m 48.068735,44.046083 c -0.17073,-0.319012 -0.27389,-3.400228 -0.27389,-8.180505 v -7.668732 l -0.91597,-0.5661 c -1.27434,-0.787585 -2.46774,-2.379151 -3.07104,-4.095646 -0.4715,-1.341498 -0.51087,-2.255063 -0.51049,-11.845116 3.7e-4,-9.365174 0.0461,-10.482447 0.46302,-11.312274 0.67135,-1.336242 1.98376,-2.12194 3.54444,-2.12194 h 1.28379 v -1.754708 c 0,-1.33626 0.13629,-1.975231 0.57152,-2.679446 0.71998,-1.164948 2.54946,-2.034508 3.79058,-1.801674 0.82267,0.154334 0.87727,0.115284 1.0382,-0.742545 0.3811,-2.031445 2.56112,-3.37473 4.59016,-2.828366 1.21881,0.328192 2.56956,1.687929 2.82298,2.841773 0.15287,0.69601 0.25308,0.747257 1.46115,0.747257 1.40142,0 2.32243,0.507657 3.30385,1.821087 0.51633,0.691002 0.55259,1.171359 0.67781,8.979485 l 0.13229,8.249429 0.91205,-2.116667 c 1.24555,-2.890654 1.47014,-3.1965 2.83107,-3.855318 1.89428,-0.917004 3.77646,-0.367023 4.86748,1.422298 0.99161,1.626288 0.77464,2.425576 -2.85595,10.521176 -1.8554,4.137244 -3.65058,7.967983 -3.98928,8.512754 -0.33869,0.54477 -1.14235,1.368626 -1.7859,1.830789 l -1.1701,0.840298 v 7.741458 c 0,6.684911 -0.0567,7.798202 -0.41577,8.157232 -0.58696,0.586959 -1.33612,0.51598 -1.81818,-0.172265 -0.35042,-0.500292 -0.41134,-1.753797 -0.40827,-8.400521 0.002,-4.296866 0.0768,-8.085756 0.16628,-8.419757 0.0924,-0.344811 0.59751,-0.829113 1.16878,-1.120554 0.55336,-0.282303 1.37865,-0.96153 1.83398,-1.509392 1.15625,-1.391229 7.48013,-15.62898 7.28608,-16.404064 -0.17048,-0.680919 -1.32506,-1.079072 -1.96687,-0.678268 -0.23214,0.144969 -1.26137,2.18251 -2.28719,4.527868 -1.02582,2.345359 -1.95816,4.35764 -2.07188,4.471736 -0.11372,0.114096 -1.09919,0.34646 -2.18994,0.516364 -3.09558,0.482191 -4.85327,2.022893 -4.85327,4.254125 0,0.832071 -0.69345,1.654667 -1.39489,1.654667 -0.7522,0 -1.25784,-1.04929 -1.07673,-2.234376 0.42786,-2.799613 2.51572,-5.140197 5.34001,-5.986375 l 1.10036,-0.329677 v -9.562495 c 0,-7.084718 -0.0823,-9.644764 -0.3175,-9.879995 -0.50309,-0.503097 -1.74402,-0.385753 -2.05444,0.194272 -0.16734,0.312686 -0.27389,3.024296 -0.27389,6.970452 0,6.127024 -0.0272,6.48332 -0.53024,6.938541 -0.43813,0.396498 -0.64497,0.42759 -1.19063,0.178971 l -0.66038,-0.300891 v -8.413468 c 0,-7.186626 -0.0601,-8.499215 -0.41187,-9.001506 -0.49955,-0.713207 -1.46531,-0.762034 -2.06066,-0.104184 -0.38837,0.42914 -0.43788,1.447038 -0.43788,9.001506 v 8.517652 l -0.62799,0.286132 c -0.45586,0.2077 -0.78222,0.203594 -1.19063,-0.01498 -0.55052,-0.294628 -0.56263,-0.442099 -0.56263,-6.847516 0,-7.114137 -0.11464,-7.722479 -1.45521,-7.722479 -1.37424,0 -1.45521,0.500853 -1.45521,9.001788 0,8.223168 -0.0334,8.460713 -1.19062,8.460713 -1.10452,0 -1.19063,-0.396089 -1.19063,-5.476876 0,-4.489097 -0.0386,-4.88043 -0.52917,-5.371042 -0.62615,-0.62615 -1.03898,-0.662749 -1.73536,-0.153843 -0.48922,0.357507 -0.5172,0.823151 -0.58945,9.809581 -0.0462,5.746015 0.0317,10.016114 0.19927,10.922605 0.35379,1.913812 1.29283,3.24943 2.89934,4.123801 0.76029,0.413802 1.34586,0.939316 1.4406,1.292841 0.0878,0.327603 0.16125,4.111259 0.16324,8.408125 0.003,6.646724 -0.0579,7.900229 -0.40826,8.400521 -0.51031,0.728563 -1.58852,0.770516 -1.96007,0.07627 z"
       id="path1"
       sodipodi:nodetypes="sscsssssscssssssssssscssscssscssscssscsssssssssscssssssscssssssssssssssssssssssssssscsssssssssscssscssssscssssssssscsssssscscsssssssssssssscscsssscscsscssssssscsssssccss" /><text
       xml:space="preserve"
       style="font-size:11.2889px;font-family:sans-serif;-inkscape-font-specification:sans-serif;writing-mode:lr-tb;direction:ltr;fill:#000000;stroke-width:0.264583"
       x="47.222572"
       y="108.51722"
       id="text1"><tspan
         sodipodi:role="line"
         id="tspan1"
         style="stroke-width:0.264583"
         x="47.222572"
         y="108.51722">Scissors wins</tspan></text></g></svg>
