<?xml version="1.0" encoding="UTF-8" standalone="no"?>
<!-- Created with Inkscape (http://www.inkscape.org/) -->

<svg
   width="169.33333mm"
   height="127mm"
   viewBox="0 0 169.33333 127"
   version="1.1"
   id="svg1"
   sodipodi:docname="scissors-rock.svg"
   inkscape:export-filename="1.svg"
   inkscape:export-xdpi="96"
   inkscape:export-ydpi="96"
   inkscape:version="1.4.3 (fcd0343856, 2026-01-01)"
   xml:space="preserve"
   xmlns:inkscape="http://www.inkscape.org/namespaces/inkscape"
   xmlns:sodipodi="http://sodipodi.sourceforge.net/DTD/sodipodi-0.dtd"
   xmlns="http://www.w3.org/2000/svg"
   xmlns:svg="http://www.w3.org/2000/svg"><sodipodi:namedview
     id="namedview1"
     pagecolor="#ffffff"
     bordercolor="#000000"
     borderopacity="0.25"
     inkscape:showpageshadow="2"
     inkscape:pageopacity="0.0"
     inkscape:pagecheckerboard="0"
     inkscape:deskcolor="#d1d1d1"
     inkscape:document-units="mm"
     inkscape:zoom="0.97890098"
     inkscape:cx="245.68368"
     inkscape:cy="207.88619"
     inkscape:window-width="1854"
     inkscape:window-height="1011"
     inkscape:window-x="66"
     inkscape:window-y="32"
     inkscape:window-maximized="1"
     inkscape:current-layer="svg1" /><defs
     id="defs1" /><g
     id="g1"
     transform="translate(0,-8.3371342)"><path
       style="fill:#000000"
       d="m 43.25986,91.194204 c -0.42431,-0.24714 -0.46302,-0.91819 -0.46302,-8.02659 v -7.7569 l -1.036927,-0.686203 c -1.242231,-0.82207 -2.174715,-1.996023 -2.990031,-3.764305 -0.58812,-1.275535 -0.60325,-1.520705 -0.60325,-9.775018 0,-8.017007 0.02842,-8.515848 0.535219,-9.392708 0.705715,-1.221034 2.566199,-2.187326 3.830405,-1.989423 0.84305,0.131974 0.963556,0.06756 1.344631,-0.718743 0.517684,-1.068175 1.923154,-2.054335 2.927829,-2.054335 0.453564,0 0.754622,-0.141153 0.754622,-0.353809 0,-0.194596 -0.303203,-1.995233 -0.673785,-4.001417 l -0.673785,-3.647606 0.607639,-1.219667 c 1.378181,-2.766314 4.760314,-3.048167 6.608631,-0.550736 0.289332,0.390943 0.742847,2.104515 1.151081,4.349277 0.370504,2.037291 0.762746,3.925202 0.871648,4.195356 0.13806,0.342487 0.551013,-0.771234 1.364046,-3.678786 1.247743,-4.462153 1.79363,-5.455359 3.357527,-6.108797 1.217298,-0.50862 2.105195,-0.4501 3.292096,0.216975 0.970443,0.54542 2.086569,2.213373 2.086569,3.118195 0,0.194699 -0.780492,3.134384 -1.734427,6.532633 -0.953936,3.398249 -1.661284,6.296984 -1.571886,6.441634 0.0894,0.144649 0.320255,0.262999 0.513015,0.262999 0.19276,0 0.787527,0.483766 1.321705,1.075036 l 0.971231,1.075037 -0.08055,7.854651 -0.08055,7.854652 -0.79375,1.439409 c -0.484389,0.878403 -1.334742,1.85805 -2.181805,2.513542 l -1.388054,1.074127 -10e-4,7.74474 -0.001,7.74474 -0.62799,0.28613 c -0.45654,0.20801 -0.78258,0.20339 -1.194226,-0.0169 -0.563119,-0.30138 -0.565852,-0.35066 -0.496489,-8.95492 l 0.06975,-8.65188 0.941881,-0.443405 c 1.267636,-0.596761 2.796006,-2.337669 3.140078,-3.576744 0.162862,-0.586503 0.281334,-3.757584 0.28219,-7.553253 l 0.0015,-6.542339 -0.640857,-0.419905 c -0.538714,-0.352979 -1.404817,-0.406664 -5.434065,-0.336829 -5.115157,0.08866 -5.288889,0.136439 -5.298109,1.457137 -0.008,1.138825 0.875332,1.404065 4.675719,1.404065 4.144554,0 4.051479,-0.07119 4.051479,3.098735 0,2.352629 -0.343078,3.094985 -1.541067,3.334583 -0.925059,0.185012 -2.311401,1.305596 -2.811378,2.272446 -0.200579,0.387877 -0.449952,1.177366 -0.554163,1.754421 -0.233999,1.295744 -0.54702,1.710649 -1.290581,1.710649 -2.126361,0 -1.345357,-4.159936 1.22379,-6.518383 0.655709,-0.601934 1.447656,-1.175504 1.759882,-1.274601 0.435277,-0.138151 0.567683,-0.392008 0.567683,-1.088388 v -0.908222 h -2.804284 c -2.032587,0 -3.051919,-0.11751 -3.704167,-0.427022 -0.82813,-0.392974 -0.971633,-0.392974 -1.799764,0 -0.494935,0.234862 -1.280613,0.427022 -1.745951,0.427022 -0.465338,0 -1.251016,-0.19216 -1.745951,-0.427022 -0.833577,-0.395558 -0.970103,-0.3937 -1.852906,0.02522 -0.568981,0.27 -1.368628,0.412605 -1.984374,0.353884 l -1.031351,-0.09835 0.0058,4.6372 c 0.0049,3.91389 0.08099,4.80228 0.487812,5.695534 0.461112,1.012467 2.414697,3.042709 2.927823,3.042709 0.134707,0 0.43202,0.187098 0.660696,0.415774 0.360297,0.360297 0.415774,1.522786 0.415774,8.712354 0,7.18956 -0.05548,8.35205 -0.415774,8.71235 -0.478329,0.47833 -0.849299,0.51043 -1.502455,0.13 z M 42.737968,57.201435 c 0.515631,-0.361161 0.588038,-0.647859 0.588038,-2.328333 0,-2.043127 -0.243986,-2.551456 -1.224642,-2.551456 -1.061737,0 -1.421191,0.670182 -1.421191,2.64973 0,1.578921 0.07738,1.872382 0.588038,2.230059 0.323421,0.226533 0.654116,0.411878 0.734879,0.411878 0.08076,0 0.411457,-0.185345 0.734878,-0.411878 z m 5.291666,0 c 0.55378,-0.387883 0.588038,-0.602576 0.588038,-3.685268 0,-3.461364 -0.207408,-4.104938 -1.322917,-4.104938 -1.115509,0 -1.322916,0.643574 -1.322916,4.104938 0,3.082692 0.03426,3.297385 0.588038,3.685268 0.323421,0.226533 0.654116,0.411878 0.734878,0.411878 0.08076,0 0.411458,-0.185345 0.734879,-0.411878 z m 5.879704,-5.143661 c 0,-0.14513 -0.541841,-3.21099 -1.204091,-6.813022 -1.226586,-6.671501 -1.415873,-7.210607 -2.531746,-7.210607 -0.585379,0 -1.291246,0.698109 -1.291246,1.277055 0,0.773228 1.775277,9.668695 2.085114,10.447983 0.162875,0.409656 0.296136,1.153796 0.296136,1.653646 v 0.908817 h 1.322917 c 0.727604,0 1.322916,-0.118742 1.322916,-0.263872 z m 7.24194,-5.96106 c 0.964641,-3.423713 1.753893,-6.435994 1.753893,-6.693959 0,-0.257964 -0.142875,-0.611901 -0.3175,-0.786526 -0.415916,-0.415916 -1.663429,-0.407643 -1.994661,0.01323 -0.143159,0.181901 -1.055364,3.128698 -2.027122,6.548438 -0.971758,3.41974 -1.82973,6.426068 -1.906604,6.680729 -0.121155,0.401348 0.05189,0.463021 1.299165,0.463021 h 1.438936 z m 48.386702,43.77912 -0.59531,-0.23088 v -7.53272 -7.532706 l -1.18087,-0.848036 c -1.26875,-0.91115 -2.21526,-2.125307 -2.97407,-3.815053 -0.42601,-0.948646 -0.47527,-1.954357 -0.47527,-9.703699 0,-8.357476 0.0184,-8.670252 0.5535,-9.392709 1.02692,-1.38658 2.21104,-1.998711 3.61369,-1.868095 0.90405,0.08419 1.25677,0.02225 1.25677,-0.220704 0,-0.571766 1.38336,-2.018089 2.29426,-2.398688 1.15615,-0.483074 1.90781,-0.454686 3.02364,0.114194 0.89288,0.455219 0.97546,0.455509 1.97417,0.0069 1.33441,-0.599351 2.15469,-0.599771 3.32776,-0.0017 0.91304,0.465494 0.96992,0.465 1.84188,-0.01599 1.67871,-0.92601 4.22533,-0.103064 5.13708,1.660054 0.21608,0.417863 0.39288,1.295874 0.39288,1.951135 0,1.156543 0.0346,1.206693 1.18357,1.714931 2.20309,0.974534 2.25389,1.190201 2.25502,9.574394 10e-4,8.908988 -0.0364,9.07281 -2.68269,11.686386 l -1.80585,1.783523 -0.0703,7.312473 c -0.0677,7.03401 -0.091,7.32616 -0.61177,7.67183 -0.46167,0.30641 -0.62735,0.29919 -1.12448,-0.049 -0.57959,-0.40595 -0.58304,-0.45675 -0.58304,-8.57564 v -8.167272 l 1.51861,-1.011999 c 0.99066,-0.660178 1.74951,-1.425919 2.18281,-2.202624 0.65424,-1.172775 0.66544,-1.293171 0.74681,-8.030768 0.0744,-6.164874 0.0378,-6.889705 -0.37174,-7.342187 -0.41521,-0.458809 -0.87919,-0.502046 -5.3875,-0.502046 -5.2809,0 -5.56816,0.06825 -5.56816,1.322917 0,1.201265 0.37734,1.322917 4.10339,1.322917 4.41575,0 4.45781,0.02591 4.5807,2.820726 0.11852,2.695457 -0.16536,3.423613 -1.47187,3.77542 -1.69507,0.456435 -3.50805,2.827143 -3.50805,4.587231 0,0.766078 -0.46213,1.25204 -1.19063,1.25204 -0.81384,0 -1.19062,-0.508596 -1.19062,-1.607151 0,-2.228053 1.51758,-4.743567 3.59688,-5.962117 0.9535,-0.558791 1.16562,-0.822965 1.16562,-1.451707 v -0.768609 h -2.72218 c -2.1763,0 -2.92507,-0.103434 -3.73389,-0.515795 -0.9479,-0.483267 -1.05351,-0.488401 -1.67465,-0.08141 -0.87851,0.575618 -2.98453,0.56504 -3.87661,-0.01947 -0.65436,-0.428752 -0.73099,-0.428752 -1.38534,0 -0.41542,0.272188 -1.20972,0.453856 -1.98438,0.453856 h -1.29171 l 0.002,4.380889 c 8.1e-4,2.40949 0.12693,4.832643 0.28026,5.384785 0.30839,1.110534 2.00833,2.973516 3.36007,3.682325 l 0.86368,0.452887 -0.0699,8.246212 c -0.0671,7.91728 -0.091,8.25968 -0.59909,8.58392 -0.34999,0.22336 -0.73075,0.25953 -1.12448,0.10683 z M 109.15434,56.23748 c 0.4214,-0.421403 0.4214,-3.970681 0,-4.392084 -0.17463,-0.174625 -0.62707,-0.3175 -1.00542,-0.3175 -1.06694,0 -1.32292,0.467347 -1.32292,2.415268 0,1.265648 0.12019,1.900455 0.41578,2.196042 0.49346,0.49346 1.46733,0.543501 1.91256,0.09827 z m 5.33527,-0.194273 c 0.39347,-0.735202 0.35683,-6.707793 -0.0436,-7.108228 -0.17463,-0.174625 -0.62707,-0.3175 -1.00542,-0.3175 -0.37835,0 -0.83079,0.142875 -1.00542,0.3175 -0.4399,0.439905 -0.4399,6.862596 0,7.302501 0.5031,0.503097 1.74402,0.385752 2.05444,-0.194273 z m 4.83796,-4.776281 c 0.65157,-0.0032 0.7276,-0.09841 0.7276,-0.910756 0,-1.042556 -0.56901,-1.738691 -1.42119,-1.738691 -0.88189,0 -1.22464,0.504782 -1.22464,1.803568 0,1.082728 0.0437,1.156848 0.59531,1.009029 0.32742,-0.08775 0.92274,-0.161163 1.32292,-0.16315 z m 6.01927,-0.910756 c 0,-1.050974 -0.57025,-1.738691 -1.44171,-1.738691 -0.7799,0 -1.1902,0.502908 -1.38384,1.696183 l -0.1541,0.949651 h 1.48982 1.48983 z"
       id="path1"
       sodipodi:nodetypes="sscssssssssscsssssssssssscccsscccscscssccsscssssssssscssssssscsssssssssssssssssssssssssssscssssssssscsccccssscsssscssssscsccssscssccsssssssssscssssssccsscssccssssssssssssscsssscssscccs" /><text
       xml:space="preserve"
       style="font-size:11.2889px;font-family:sans-serif;-inkscape-font-specification:sans-serif;writing-mode:lr-tb;direction:ltr;fill:#000000;stroke-width:0.264583"
       x="56.39756"
       y="107.96854"
       id="text1"><tspan
         sodipodi:role="line"
         id="tspan1"
         style="stroke-width:0.264583"
         x="56.39756"
         y="107.96854">Rock wins</tspan></text></g></svg>
