<?xml version="1.0" encoding="UTF-8" standalone="no"?>
<!-- Created with Inkscape (http://www.inkscape.org/) -->

<svg
   width="169.33333mm"
   height="127mm"
   viewBox="0 0 169.33333 127"
   version="1.1"
   id="svg1"
   xml:space="preserve"
   xmlns="http://www.w3.org/2000/svg"
   xmlns:svg="http://www.w3.org/2000/svg"><defs
     id="defs1" /><g
     id="layer1"><path
       style="fill:#000000"
       d="m 30.225246,94.304337 -0.45245,-0.45245 v -8.186893 -8.186892 l -0.52474,-0.25023 c -0.78993,-0.376691 -2.42594,-1.985369 -3.01633,-2.965942 -0.28751,-0.477517 -0.70543,-1.337787 -0.92872,-1.91171 l -0.40597,-1.043497 v -9.364547 -9.364547 l 0.34229,-0.639955 c 0.48438,-0.905609 1.2258,-1.595399 2.1886,-2.036182 0.71832,-0.328858 0.9932,-0.370606 2.04085,-0.309959 l 1.21071,0.07009 0.25255,-0.661277 c 0.28789,-0.753834 1.21351,-1.774399 1.96708,-2.168854 0.31126,-0.16293 0.99609,-0.294011 1.75127,-0.335206 1.26583,-0.06905 1.77031,0.05621 2.71908,0.675149 0.38536,0.25139 0.42216,0.245137 1.0664,-0.181199 0.53137,-0.351647 0.88332,-0.453783 1.72818,-0.501522 1.36625,-0.0772 1.97735,0.04426 2.70411,0.537444 0.56387,0.382656 0.60555,0.388687 0.98298,0.142249 0.82707,-0.540025 1.47879,-0.732133 2.48375,-0.732133 1.70315,0 2.99305,0.755401 3.79359,2.22163 0.38256,0.700671 0.45944,1.038319 0.51362,2.25578 0.0572,1.284625 0.0941,1.431769 0.3598,1.431769 0.97198,0 2.52714,1.266283 3.09345,2.518823 l 0.3658,0.809074 v 7.507116 c 0,7.427847 -0.004,7.519374 -0.3609,8.668011 -0.19849,0.638491 -0.59902,1.590176 -0.89007,2.114854 -0.62341,1.123828 -2.05911,2.633379 -3.06546,3.223142 l -0.71412,0.418498 v 8.175185 8.175184 l -0.47623,0.40073 c -0.5202,0.43772 -0.90968,0.49781 -1.43007,0.22065 -0.73096,-0.38931 -0.71494,-0.17616 -0.72013,-9.580952 -0.005,-8.648233 0.004,-8.919285 0.29941,-9.236365 0.16738,-0.179666 0.4616,-0.376578 0.6538,-0.437582 0.62422,-0.198118 1.93518,-1.156774 2.43867,-1.783304 0.27029,-0.336344 0.71363,-1.080573 0.9852,-1.653842 l 0.49375,-1.042307 v -7.464782 -7.464779 l -0.42918,-0.429302 -0.42918,-0.429302 h -5.41047 -5.41047 l -0.40522,0.405224 c -0.72527,0.725271 -0.44854,2.106967 0.49375,2.465224 0.21392,0.08133 2.05926,0.147877 4.10077,0.147877 h 3.71182 l 0.37993,0.379929 c 0.37426,0.374268 0.37993,0.420065 0.37993,3.073116 0,2.644214 -0.007,2.700635 -0.37958,3.102754 -0.20876,0.225262 -0.50479,0.410247 -0.65784,0.411079 -0.50845,0.0028 -1.87677,0.741385 -2.58808,1.397049 -0.83464,0.769346 -1.46768,2.025474 -1.58078,3.136704 -0.12155,1.194159 -0.34936,1.665009 -0.92122,1.903945 -0.99601,0.416161 -1.92446,-0.31779 -1.91908,-1.517071 0.004,-0.802999 0.424,-2.386324 0.88864,-3.346766 0.56555,-1.169054 2.31678,-2.926917 3.51307,-3.526374 l 0.92131,-0.461672 -0.0447,-0.842362 c -0.0246,-0.463299 -0.0776,-0.895599 -0.11782,-0.960666 -0.0402,-0.06507 -1.45226,-0.118304 -3.13789,-0.118304 h -3.06477 l -0.90901,-0.458513 -0.909,-0.458513 -0.91757,0.458513 c -1.29887,0.649052 -2.60997,0.646255 -3.91998,-0.0084 l -0.9343,-0.466875 -0.82529,0.428179 c -0.7183,0.372665 -1.00173,0.428179 -2.18614,0.428179 h -1.36085 v 4.886358 c 0,4.027135 0.0435,5.032905 0.2475,5.719757 0.50283,1.693242 1.76701,3.1565 3.42996,3.970105 0.45284,0.221552 0.92512,0.548132 1.04952,0.725733 0.19193,0.274031 0.22617,1.65504 0.22617,9.123173 v 8.800265 l -0.45245,0.45245 c -0.3088,0.3088 -0.60745,0.45245 -0.94062,0.45245 -0.33318,0 -0.63183,-0.14365 -0.94062,-0.45245 z m -0.53734,-36.450884 c 0.28838,-0.120491 0.59959,-0.359699 0.69157,-0.531574 0.0944,-0.176466 0.16724,-1.162238 0.16724,-2.264535 0,-1.866151 -0.0167,-1.968752 -0.37992,-2.331965 -0.27558,-0.275577 -0.54844,-0.379929 -0.99345,-0.379929 -1.33542,0 -1.56756,0.410379 -1.56756,2.771177 0,1.915807 0.13912,2.368413 0.83321,2.710831 0.59627,0.29416 0.60659,0.294375 1.24891,0.02599 z m 5.91962,-0.08367 c 0.75469,-0.46016 0.85333,-1.030988 0.79484,-4.599573 -0.0498,-3.039955 -0.0609,-3.132596 -0.41888,-3.51335 -0.4791,-0.509534 -1.09352,-0.634598 -1.7566,-0.357548 -0.84922,0.35483 -0.9176,0.709063 -0.86405,4.476455 0.0438,3.081132 0.0711,3.36257 0.357,3.680007 0.5925,0.657866 1.16701,0.753434 1.88769,0.314009 z m 5.27115,-5.534851 1.27699,-0.09025 V 51.24624 c 0,-1.136291 -0.21549,-1.60702 -0.88003,-1.922362 -0.64902,-0.307981 -1.27495,-0.194264 -1.7574,0.319277 -0.29271,0.311579 -0.36728,0.597825 -0.42772,1.641964 -0.0689,1.190826 -0.0562,1.25805 0.21898,1.152327 0.16071,-0.06175 0.86684,-0.152883 1.56918,-0.202518 z m 7.00407,-1.093325 c 0,-1.181418 -0.19876,-1.589512 -0.91955,-1.888074 -0.57987,-0.240191 -1.15971,-0.105617 -1.64775,0.382426 -0.32428,0.324279 -0.37364,0.517688 -0.37364,1.464171 v 1.090537 h 1.47047 1.47047 z M 120.1708,94.55798 c -0.77237,-0.3908 -0.77226,-0.3895 -0.7747,-9.265691 l -0.002,-8.303606 -0.76729,-0.492371 c -1.9454,-1.24836 -3.63228,-3.792435 -4.01391,-6.053588 -0.11137,-0.659853 -0.17195,-3.962856 -0.17195,-9.375149 0,-9.703077 -0.0245,-9.498265 1.28978,-10.795923 0.98713,-0.97467 2.06482,-1.403897 3.2459,-1.29279 0.44244,0.04162 0.91559,0.122927 1.05145,0.18068 0.18778,0.07982 0.30813,-0.055 0.50182,-0.562164 0.55633,-1.456744 1.96669,-2.534693 3.58362,-2.738989 0.56157,-0.07095 0.76594,-0.16111 0.74088,-0.326838 -0.019,-0.125871 -0.28534,-1.587103 -0.5918,-3.247181 -0.93424,-5.060641 -0.91949,-4.924048 -0.63664,-5.896999 0.85969,-2.957253 4.52554,-4.06712 6.87707,-2.082095 0.98205,0.828998 1.20515,1.451039 1.94569,5.425126 0.38072,2.043174 0.74145,4.028303 0.8016,4.411398 0.0602,0.383096 0.1665,0.801017 0.23632,0.928716 0.15693,0.287015 -0.002,0.77256 1.47379,-4.488791 0.65689,-2.341137 1.29655,-4.465573 1.42146,-4.72097 0.40096,-0.81983 1.45058,-1.764846 2.32254,-2.09109 1.67845,-0.627986 3.40102,-0.2305 4.55664,1.051446 1.31547,1.459271 1.46649,2.464933 0.75159,5.004962 -0.27272,0.968968 -0.98576,3.503101 -1.58454,5.631408 -0.59878,2.128306 -1.24848,4.392049 -1.44379,5.030541 l -0.35509,1.160895 0.87528,0.400031 c 1.04294,0.476654 1.88362,1.359958 2.28518,2.401037 0.27254,0.706603 0.29275,1.271978 0.29275,8.18873 0,6.613241 -0.03,7.540289 -0.27289,8.435832 -0.59245,2.184253 -1.96625,4.120596 -3.82893,5.39682 l -0.85133,0.583287 -0.0774,8.459162 c -0.0705,7.701994 -0.10118,8.486934 -0.34312,8.769434 -0.56807,0.66329 -1.76352,0.52711 -2.11337,-0.24074 -0.23467,-0.51503 -0.24819,-18.20774 -0.0143,-18.644847 0.0883,-0.165061 0.58473,-0.5142 1.10309,-0.775866 1.79377,-0.905495 2.95286,-2.332184 3.45218,-4.249198 0.31684,-1.216458 0.3514,-14.46171 0.0393,-15.086214 -0.10634,-0.21283 -0.43617,-0.50875 -0.73295,-0.657599 -0.4785,-0.239991 -1.07415,-0.270565 -5.26057,-0.270012 -4.94803,6.52e-4 -5.70592,0.08234 -6.10948,0.658496 -0.36388,0.519522 -0.30024,1.416272 0.13659,1.924432 l 0.37333,0.434293 3.94693,0.04606 3.94694,0.04606 0.4007,0.400707 c 0.40008,0.400074 0.40071,0.404915 0.40071,3.067479 0,2.437779 -0.0267,2.700772 -0.31146,3.062726 -0.1713,0.217775 -0.53698,0.444712 -0.81262,0.504303 -2.14302,0.463303 -3.88518,2.448857 -4.092,4.663679 -0.1247,1.335424 -0.50983,1.823106 -1.43971,1.823106 -0.84196,0 -1.39308,-0.572564 -1.39308,-1.447301 0,-0.865666 0.55107,-2.865824 1.04143,-3.77998 0.59532,-1.109837 2.13354,-2.584235 3.35511,-3.215913 l 1.01983,-0.527352 5.7e-4,-0.890019 5.7e-4,-0.890019 -2.82484,-0.0038 c -3.11085,-0.0042 -3.91986,-0.125005 -4.82599,-0.720833 -0.4845,-0.318587 -0.65751,-0.363441 -0.85132,-0.220722 -1.53228,1.128308 -3.75259,1.128308 -5.28486,0 -0.19399,-0.142841 -0.36774,-0.09674 -0.85791,0.227643 -0.78829,0.521661 -2.17401,0.787025 -3.08985,0.591697 L 117.227,59.967472 v 4.824471 c 0,5.227111 0.0877,5.971683 0.85808,7.286263 0.5433,0.927066 1.71591,1.980491 2.83137,2.543572 0.51836,0.261666 1.01475,0.610805 1.10308,0.775866 0.10573,0.197546 0.16062,3.402222 0.16062,9.377167 v 9.07706 l -0.45245,0.45245 c -0.48693,0.48693 -0.94738,0.56195 -1.55672,0.25364 z m -0.35132,-37.649749 c 0.32166,-0.370194 0.34827,-0.550314 0.34827,-2.357241 0,-1.912273 -0.009,-1.966215 -0.41592,-2.39055 -0.54618,-0.570081 -1.3911,-0.595641 -2.01333,-0.06091 -0.42285,0.363395 -0.43567,0.420796 -0.48661,2.179443 -0.0582,2.009219 0.0849,2.586261 0.73153,2.949937 0.56619,0.318433 1.40858,0.171303 1.83606,-0.320683 z m 5.75746,0.0047 0.39528,-0.395284 v -3.56996 -3.56996 l -0.43429,-0.373563 c -0.5889,-0.506549 -1.4832,-0.506666 -2.07235,-2.69e-4 l -0.43429,0.373294 -0.051,3.225478 c -0.0568,3.585885 0.0448,4.242321 0.7145,4.618002 0.56652,0.317796 1.39156,0.182902 1.8822,-0.307738 z m 4.97413,-5.186611 c 1.14851,0 1.22562,-0.0208 1.22562,-0.330682 0,-0.181875 -0.21134,-1.453054 -0.46965,-2.824843 -0.2583,-1.371788 -0.6379,-3.399658 -0.84355,-4.506378 -0.20565,-1.106719 -0.58551,-3.147067 -0.84413,-4.534107 -0.25862,-1.387039 -0.54634,-2.664115 -0.63937,-2.837946 -0.22134,-0.413586 -1.03871,-0.747411 -1.57773,-0.64437 -0.51642,0.09872 -1.19786,0.864743 -1.19786,1.346532 0,0.780803 1.88019,10.282593 2.16833,10.957921 0.19023,0.445864 0.34931,1.273495 0.41052,2.135769 0.0802,1.130248 0.14353,1.391085 0.32106,1.322959 0.12162,-0.04667 0.77266,-0.08486 1.44676,-0.08486 z m 7.26227,-0.06461 c 0,-0.123155 2.46568,-8.769073 3.27019,-11.466944 0.69398,-2.327224 0.72638,-2.843734 0.2164,-3.449811 -0.35219,-0.418555 -0.52424,-0.497229 -1.0874,-0.497229 -0.94953,0 -1.28844,0.468657 -1.91112,2.642779 -0.2786,0.97274 -0.67792,2.360675 -0.88737,3.084299 -0.99635,3.442235 -2.69641,9.509995 -2.69641,9.623879 0,0.0702 0.69653,0.127633 1.54785,0.127633 0.85133,0 1.54786,-0.02907 1.54786,-0.06461 z m -65.117524,42.102446 -0.4343,-0.37349 -0.0436,-8.642784 -0.0436,-8.642787 -0.86552,-0.541751 c -1.79649,-1.124477 -3.3191,-3.348219 -3.84333,-5.613119 -0.21039,-0.908958 -0.23672,-2.540919 -0.19976,-12.382872 l 0.0426,-11.335937 0.42033,-0.796964 c 0.90053,-1.707442 3.02986,-2.71899 4.70951,-2.237273 l 0.48423,0.138874 0.066,-1.957608 c 0.0544,-1.613771 0.12421,-2.069522 0.39738,-2.59478 0.50354,-0.968247 1.01228,-1.498552 1.91991,-2.001317 0.7437,-0.411955 0.95954,-0.456287 2.17981,-0.447713 l 1.35438,0.0095 v -0.411161 c 0,-0.226139 0.22637,-0.856125 0.50305,-1.39997 1.13109,-2.223276 3.69213,-2.943156 5.8544,-1.645602 1.1472,0.688419 1.73679,1.609383 2.07158,3.235869 0.0808,0.392321 0.11452,0.407334 0.56382,0.250708 1.08767,-0.379166 3.11403,0.230488 4.03399,1.213674 0.22648,0.242052 0.57475,0.753536 0.77393,1.136631 l 0.36214,0.696536 0.0774,9.086413 0.0774,9.086412 1.06782,-2.508011 c 1.19362,-2.803483 1.48455,-3.300664 2.31995,-3.96455 0.76491,-0.60788 1.51647,-0.850993 2.64888,-0.856858 2.024544,-0.01049 3.590094,1.273837 4.114284,3.375209 0.2383,0.95527 0.0705,1.730643 -0.79739,3.684998 -1.49335,3.36273 -3.864034,8.657229 -5.619994,12.551286 -0.64321,1.42639 -1.34576,2.852866 -1.56122,3.169947 -0.61216,0.900872 -1.78503,2.051081 -2.67538,2.623695 l -0.81263,0.522623 -0.005,8.547165 c -0.005,9.019961 0.01,8.829721 -0.72014,9.218421 -0.52039,0.27716 -0.90986,0.21706 -1.43007,-0.22066 l -0.47623,-0.40072 v -9.283573 c 0,-5.377981 0.0601,-9.395897 0.1429,-9.55057 0.0786,-0.14685 0.59848,-0.495936 1.15532,-0.775748 0.64822,-0.32573 1.30861,-0.828652 1.83573,-1.398011 0.85201,-0.920264 0.9199,-1.053418 3.6776,-7.213008 4.387394,-9.799648 4.642614,-10.385943 4.642614,-10.665178 0,-0.767015 -0.788434,-1.485515 -1.630104,-1.485515 -0.77414,0 -1.21501,0.709064 -2.98345,4.798363 -0.9388,2.170872 -1.82528,4.244372 -1.96994,4.607778 -0.37972,0.953883 -0.85836,1.273516 -1.91191,1.276773 -3.53412,0.01093 -6.02904,1.800992 -6.3067,4.524954 -0.11342,1.112637 -0.31925,1.592385 -0.77163,1.798502 -0.79405,0.361793 -1.63332,0.08598 -1.93192,-0.634894 -0.29705,-0.717151 0.0448,-2.572257 0.7324,-3.974976 1.03652,-2.114391 3.22031,-3.813695 5.44411,-4.236311 l 0.95848,-0.182152 V 50.440698 39.938765 l -0.45245,-0.452451 c -0.58219,-0.582186 -1.35565,-0.613111 -1.97679,-0.07904 l -0.4343,0.373415 -0.0774,7.379422 -0.0774,7.379422 -0.4343,0.373423 c -0.58554,0.503479 -1.3873,0.500725 -1.89453,-0.0065 l -0.37993,-0.379929 v -9.14709 c 0,-9.789464 -9e-4,-9.801507 -0.76535,-10.21063 -0.75881,-0.406102 -1.88601,0.0052 -2.1588,0.787735 -0.11803,0.338604 -0.17156,3.330772 -0.17156,9.590195 v 9.098036 l -0.40784,0.320806 c -0.51928,0.408463 -1.29396,0.410391 -1.80996,0.0045 l -0.40211,-0.316302 -0.0444,-7.358413 -0.0444,-7.358413 -0.50549,-0.451545 c -0.80741,-0.721235 -1.81389,-0.580231 -2.27905,0.319286 -0.20027,0.387272 -0.23378,1.681745 -0.23378,9.029512 0,8.443179 -0.005,8.583814 -0.32081,8.985269 -0.24721,0.314279 -0.45736,0.407839 -0.91605,0.407839 -1.54532,0 -1.54929,-0.01605 -1.54929,-6.273049 v -5.20492 l -0.45245,-0.452452 c -0.62606,-0.626065 -1.41145,-0.624578 -2.03989,0.0039 l -0.45631,0.456312 0.0426,11.423505 0.0426,11.423506 0.49425,1.043373 c 0.60808,1.283666 1.70198,2.409053 2.95789,3.043033 0.51531,0.26013 1.04644,0.629303 1.18028,0.820384 0.21463,0.306427 0.24334,1.43142 0.24334,9.534646 v 9.187223 l -0.45245,0.45246 c -0.56716,0.56715 -1.22137,0.5955 -1.82201,0.079 z"
       id="path9" /></g></svg>
