<?xml version="1.0" encoding="UTF-8" standalone="no"?>
<!-- Created with Inkscape (http://www.inkscape.org/) -->

<svg
   width="169.33333mm"
   height="127mm"
   viewBox="0 0 169.33333 127"
   version="1.1"
   id="svg1"
   xml:space="preserve"
   sodipodi:docname="setup.svg"
   inkscape:version="1.4.3 (fcd0343856, 2026-01-01)"
   inkscape:export-filename="setup.svg"
   inkscape:export-xdpi="96"
   inkscape:export-ydpi="96"
   xmlns:inkscape="http://www.inkscape.org/namespaces/inkscape"
   xmlns:sodipodi="http://sodipodi.sourceforge.net/DTD/sodipodi-0.dtd"
   xmlns="http://www.w3.org/2000/svg"
   xmlns:svg="http://www.w3.org/2000/svg"><sodipodi:namedview
     id="namedview1"
     pagecolor="#ffffff"
     bordercolor="#000000"
     borderopacity="0.25"
     inkscape:showpageshadow="2"
     inkscape:pageopacity="0.0"
     inkscape:pagecheckerboard="0"
     inkscape:deskcolor="#d1d1d1"
     inkscape:document-units="mm"
     inkscape:zoom="0.97890098"
     inkscape:cx="484.21649"
     inkscape:cy="177.23958"
     inkscape:window-width="1854"
     inkscape:window-height="1011"
     inkscape:window-x="66"
     inkscape:window-y="32"
     inkscape:window-maximized="1"
     inkscape:current-layer="g2"><inkscape:page
       x="0"
       y="0"
       width="169.33333"
       height="127"
       id="page2"
       margin="0"
       bleed="0" /></sodipodi:namedview><defs
     id="defs1"><clipPath
       clipPathUnits="userSpaceOnUse"
       id="clipPath1112"><path
         d="M 0,512 H 512 V 0 H 0 Z"
         id="path1110" /></clipPath></defs><g
     id="layer1"><g
       id="g9"><g
         id="g1"><g
           id="g2"
           transform="translate(0.56792126,-0.03258742)"><g
             id="g3"
             transform="translate(0,3.6488625)"><g
               id="g1108"
               clip-path="url(#clipPath1112)"
               transform="matrix(0.10248281,0,0,-0.10248281,57.863144,74.183043)"><g
                 id="g8"><g
                   id="g1114"
                   transform="translate(444.5757,415.3209)"><path
                     d="m 0,0 c -12.497,-12.497 -32.758,-12.497 -45.255,0 -12.497,12.497 -12.497,32.758 0,45.255 12.497,12.497 32.758,12.497 45.255,0 C 12.497,32.758 12.497,12.497 0,0 Z"
                     style="fill:none;stroke:#000000;stroke-width:20;stroke-linecap:round;stroke-linejoin:round;stroke-miterlimit:10;stroke-dasharray:none;stroke-opacity:1"
                     id="path1116" /></g><g
                   id="g1118"
                   transform="translate(112.6792,51.4243)"><path
                     d="m 0,0 c -12.497,-12.497 -32.758,-12.497 -45.255,0 -12.497,12.497 -12.497,32.758 0,45.255 12.497,12.497 32.758,12.497 45.255,0 C 12.497,32.758 12.497,12.497 0,0 Z"
                     style="fill:none;stroke:#000000;stroke-width:20;stroke-linecap:round;stroke-linejoin:round;stroke-miterlimit:10;stroke-dasharray:none;stroke-opacity:1"
                     id="path1120" /></g><g
                   id="g1122"
                   transform="translate(207.4873,14.7831)"><path
                     d="m 0,0 c 15.684,-3.137 31.906,-4.783 48.513,-4.783 135.862,0 246,110.138 246,246 0,59.309 -20.992,113.713 -55.947,156.196"
                     style="fill:none;stroke:#000000;stroke-width:20;stroke-linecap:round;stroke-linejoin:round;stroke-miterlimit:10;stroke-dasharray:none;stroke-opacity:1"
                     id="path1124" /></g><g
                   id="g1126"
                   transform="translate(304.9796,497.123)"><path
                     d="m 0,0 c -15.829,3.198 -32.208,4.877 -48.98,4.877 -135.862,0 -246,-110.138 -246,-246 0,-59.309 20.992,-113.713 55.947,-156.196"
                     style="fill:none;stroke:#000000;stroke-width:20;stroke-linecap:round;stroke-linejoin:round;stroke-miterlimit:10;stroke-dasharray:none;stroke-opacity:1"
                     id="path1128" /></g><g
                   id="g1130"
                   transform="translate(256,183.3705)"><path
                     d="m 0,0 c -40.112,0 -72.63,32.517 -72.63,72.63 0,40.112 32.518,72.629 72.63,72.629 40.112,0 72.63,-32.517 72.63,-72.629 C 72.63,32.517 40.112,0 0,0 Z m 144.835,103.983 c -3.81,17.732 -10.787,34.287 -20.32,49.038 l 19.16,19.161 -44.229,44.197 -19.145,-19.145 c -14.751,9.533 -31.305,16.51 -49.037,20.319 v 27.077 h -62.528 v -27.077 c -17.732,-3.809 -34.286,-10.786 -49.037,-20.319 l -19.145,19.145 -44.229,-44.197 19.16,-19.161 c -9.533,-14.751 -16.51,-31.306 -20.32,-49.038 h -27.148 l -0.034,-62.527 h 27.181 c 3.81,-17.732 10.787,-34.287 20.32,-49.039 l -19.233,-19.233 44.197,-44.23 19.249,19.25 c 14.752,-9.534 31.307,-16.511 49.039,-20.321 V -99.37 h 62.528 v 27.253 c 17.732,3.81 34.287,10.787 49.039,20.321 l 19.249,-19.25 44.197,44.23 -19.233,19.233 c 9.533,14.752 16.51,31.307 20.32,49.039 h 27.181 v 62.527 z"
                     style="fill:none;stroke:#000000;stroke-width:20;stroke-linecap:round;stroke-linejoin:round;stroke-miterlimit:10;stroke-dasharray:none;stroke-opacity:1"
                     id="path1132" /></g><g
                   id="g1134"
                   transform="translate(348.0782,484.1854)"><path
                     d="M 0,0 V 0"
                     style="fill:none;stroke:#000000;stroke-width:20;stroke-linecap:round;stroke-linejoin:round;stroke-miterlimit:10;stroke-dasharray:none;stroke-opacity:1"
                     id="path1136" /></g><g
                   id="g1138"
                   transform="translate(164.3584,27.6387)"><path
                     d="M 0,0 V 0"
                     style="fill:none;stroke:#000000;stroke-width:20;stroke-linecap:round;stroke-linejoin:round;stroke-miterlimit:10;stroke-dasharray:none;stroke-opacity:1"
                     id="path1140" /></g></g></g><text
               xml:space="preserve"
               style="font-size:7.5039px;font-family:sans-serif;-inkscape-font-specification:sans-serif;text-align:center;writing-mode:lr-tb;direction:ltr;text-anchor:middle;fill:#000000;stroke-width:0.117249"
               x="83.930199"
               y="96.494736"
               id="text1"><tspan
                 sodipodi:role="line"
                 id="tspan1"
                 style="stroke-width:0.117249"
                 x="83.930199"
                 y="96.494736">Please wait for setup to complete</tspan></text></g></g></g></g></g></svg>
